<?xml version="1.0" encoding="UTF-8" standalone="no"?>
<svg
   version="1.1"
   preserveAspectRatio="none"
   x="0px"
   y="0px"
   width="803.54553"
   height="986.37225"
   viewBox="0 0 803.54553 986.37225"
   id="svg57"
   xmlns="http://www.w3.org/2000/svg"
   xmlns:svg="http://www.w3.org/2000/svg">
  <defs
     id="defs2" />
  <g
     id="Layer_1"
     transform="translate(-530.44824,-36.673851)">
    <g
       id="Harmony_Dudes_v03b_svg"
       transform="matrix(1.174881,0,0,1.174881,31.4,100.65)" />
    <g
       id="Layer_2"
       transform="matrix(1.174881,0,0,1.174881,31.4,100.65)">
      <g
         id="U"
         transform="matrix(2.8673401,0,0,2.8673401,767.05,365.95)">
        <g
           id="g11">
          <g
             id="g9">
            <g
               id="g7">
              <path
                 fill="#000000"
                 stroke="none"
                 d="m 107.35,-146.4 q -0.42676,0.2959 -0.55,0.8 -2.76133,11.56895 -5.4,27.9 -0.51465,-0.79531 -1.05,-1.35 -0.28125,-7.55645 -0.55,-11.4 v -0.05 q -0.01289,-0.52578 -0.45,-0.9 -0.382422,-0.35879 -0.95,-0.35 -0.512891,0.0508 -0.9,0.45 -0.344141,0.40469 -0.35,0.95 v 0 q 0.234375,5.36758 0.25,9.85 -0.420313,0.066 -0.85,0.25 -1.155859,0.46035 -2.2,2.25 -0.754883,1.37402 -1.3,4.1 0.09453,-2.10059 0.05,-3.95 v -0.05 q -0.02656,-6.45977 -1.2,-11.9 v 0 l -0.7,-2.9 q -0.02129,-4.3166 0.1,-9.75 0.04141,-0.4375 -0.25,-0.8 -0.305273,-0.36465 -0.8,-0.45 -0.426563,-0.0852 -0.85,0.15 -0.385156,0.23301 -0.55,0.65 -0.979688,2.74336 -0.95,5.6 0.06562,2.00195 0.75,5 0.07969,8.88457 0.55,20.7 0.02285,0.19531 0.95,20.7 -1.725195,15.060742 -3.4,33.4 v 0.05 q -1.425,8.406445 -3.3,22.85 -2.111914,16.356836 -3.1,22.9 Q 78.616016,-0.95292969 74.9,9.65 74.83379,9.611523 74.7,9.55 77.980664,-9.4384766 79.75,-32 q 1.972656,-10.135547 3.4,-22.75 1.075,-8.920508 2.15,-22.55 1.726367,-21.789258 1.8,-23.8 0.783398,-13.96465 -0.35,-23.7 -0.546875,-5.97539 -1.9,-9.5 -0.163867,-0.39531 -0.55,-0.65 -0.375391,-0.18262 -0.8,-0.1 -0.432812,0.0717 -0.75,0.4 -0.261719,0.3209 -0.3,0.75 -0.275586,9.24277 -1.35,26.55 -1.075586,18.292969 -1.4,26.65 -0.974805,29.894531 -2.4,48.45 v 0.05 q -1.504883,7.42207 -3.2,13.65 Q 66.454688,9.3957031 56,30.2 42.863477,56.334375 24.55,73.15 q -6.018945,5.560156 -13.2,9.9 L 11.3,83.1 v -0.05 q -8.3111328,2.533203 -15.7,7.6 h -0.05 q -9.264063,3.266016 -16.4,2.25 v -0.05 q -5.861328,-0.79043 -11,-3 -3.189453,-2.596289 -8.75,-9 -0.369922,-0.453906 -0.75,-0.95 0.260547,-0.111328 0.45,-0.4 0.28125,-0.369922 0.2,-0.85 -3.423438,-29.748047 -6.55,-52.85 0.04023,0.136914 0,0.25 0.02656,-0.0541 0,-0.15 0.01,-0.504102 -0.4,-0.9 -0.352734,-0.338477 -0.9,-0.35 -0.225391,0.03184 -0.45,0.1 -1.598633,-14.489648 -3.95,-30.05 l 0.65,-2.2 q -0.02148,0.1599609 -0.1,0.3 0.08281,-0.1552734 0.1,-0.35 0.06211,-0.1193359 0.1,-0.3 0.650586,-2.553125 1.15,-5.55 0.175391,4.0181641 0.35,8.8 0.188477,3.90078125 0.3,7.5 0.06191,0.2486328 0.1,0.5 v 0 q 2.121875,14.91582 3.05,22.35 V 24.7 q -0.124609,-11.483398 -0.9,-29.4 -1.01582,-24.932227 -1.2,-29.4 0.02637,-0.01328 0,-0.05 0.275195,-14.289453 0.35,-16.3 v 0 q 0.825,-22.646875 1.3,-32.95 0.576172,-9.672461 1.25,-18.25 0.03203,-0.0904 0.05,-0.2 0.369727,-1.3207 0.75,-2.5 v 0.05 q 3.241602,-9.62109 7.95,-16.35 0.289062,-0.40898 0.2,-0.9 -0.08594,-0.50273 -0.5,-0.8 -0.408984,-0.29004 -0.9,-0.2 -0.501758,0.0861 -0.8,0.5 -3.286328,4.6832 -5.9,10.7 0.262305,-2.49023 0.5,-4.9 0.07441,-0.51445 -0.25,-0.95 -0.316797,-0.39219 -0.85,-0.5 -0.482422,-0.0381 -0.9,0.25 -0.414258,0.32402 -0.5,0.8 -0.007,0.0641 -0.05,0.1 0.01621,0.0807 0,0.15 -0.732422,6.86426 -1.35,14.55 v 0.05 q -0.671289,2.192383 -1.35,4.75 -0.324414,1.342578 -0.7,2.75 0.491211,-6.92871 0.9,-10.85 v -0.05 q 0.811719,-7.8793 2.6,-13.65 0.06094,-0.0912 0.05,-0.2 l 0.2,-0.65 q 0.1625,-0.50254 -0.1,-0.95 -0.280859,-0.44961 -0.8,-0.6 -0.50332,-0.11309 -0.95,0.15 -0.449219,0.28008 -0.6,0.8 l -0.1,0.45 q -0.04434,0.0771 -0.1,0.15 0.0084,0.0363 0,0.05 -0.01602,0.0488 -0.05,0.05 -0.0127,0.14375 -0.05,0.25 -5.67207,16.49375 -8,37.95 -0.731055,7.171875 -1.8,26.55 -0.03965,-0.443555 -0.1,-0.9 -0.01992,-0.527344 -0.45,-0.9 -0.375977,-0.317383 -0.9,-0.3 -0.527539,0.06953 -0.9,0.45 -0.241992,0.337695 -0.3,0.7 v 0.05 q 0.0168,0.09824 0,0.2 v 0 q -0.291992,4.71543 -0.75,12.45 -0.01504,0.01152 -0.05,0 0.106641,-1.905859 0.75,-13.5 0.03691,0.408008 0.05,0.8 0.547656,-8.100586 1.2,-15.7 -0.03984,-0.311914 -0.1,-0.6 -0.02832,-0.422656 -0.35,-0.75 0.101563,-1.354883 0.15,-2.5 0.05879,-0.474805 -0.3,-0.85 -0.315625,-0.387109 -0.85,-0.45 -0.474023,-0.0092 -0.85,0.3 -0.386719,0.366602 -0.45,0.85 -0.115625,2.189844 -0.25,5.3 -0.02871,0.149805 -0.05,0.25 -1.568555,8.142773 -2.15,18.25 -0.25918,5.673828 -0.3,15.25 -0.151758,-1.425781 -0.25,-1.85 v -0.05 q 0.02363,-0.111719 0,-0.25 -0.0076,-0.01563 -0.05,-0.05 0.136719,-3.448047 0.35,-8.25 0.475977,-9.382812 0.45,-14.85 0.04277,-4.253516 0.2,-8.9 l 0.75,-10.45 q 0.373438,-3.447461 0.7,-6.45 0.250195,-2.287305 0.55,-4.55 v -0.05 q 0.04023,-0.462695 0.1,-0.95 0.03809,-0.03867 0.05,-0.1 0.137695,-1.213281 0.3,-2.6 1.660547,-11.47852 4.35,-21.85 0.04004,-0.0119 0.05,-0.05 0.150977,-0.55098 -0.15,-1.05 -0.255859,-0.49316 -0.8,-0.65 -0.255859,-0.0711 -0.5,-0.05 0.08516,-0.6543 0.15,-1.35 v 0 q 0.174609,-1.25898 0.65,-5.85 0.364258,-3.39844 0.8,-5.55 0.09766,-0.45059 -0.15,-0.85 -0.20957,-0.39844 -0.65,-0.55 -0.426953,-0.15059 -0.85,0 -3.004492,1.15117 -3.6,5.1 h 0.05 q -0.313281,1.78262 -0.5,5.3 -0.172461,1.01738 -1.25,5.75 -0.820312,3.6752 -1,6.1 -0.664258,9.30977 -1.95,17.65 -2.364453,15.608594 -3.25,23.75 -0.512891,5.331641 -0.8,10.3 -0.274805,-2.776367 -0.4,-4.35 l 0.95,-11.4 v -0.05 q 1.532422,-8.321289 2.1,-12.7 l 0.05,-0.05 q 0.943164,-7.412305 0.7,-12.7 v -0.1 q 0.197656,-2.35879 0.3,-3.6 0.204492,-1.97637 0.15,-3.1 0,-0.0377 0,-0.1 -0.01758,-3.20254 -1.85,-3.55 -0.372266,-0.10137 -0.75,-0.05 -0.369336,0.10957 -0.65,0.35 -0.286914,0.28652 -0.4,0.65 -0.539062,1.73965 -0.25,4.15 v -0.05 q 0.106445,1.29375 0.5,3.7 v -0.05 l 0.15,1.55 v 0.05 q -0.325391,3.248047 -1.5,12.55 -0.05742,0.486523 -0.1,0.9 -0.06914,-0.135742 -0.2,-0.3 -0.277344,-0.470117 -0.85,-0.6 -0.516797,-0.13418 -1,0.15 -0.489844,0.271094 -0.65,0.8 -0.561133,1.932422 -1.05,3.95 0.182031,-3.944336 0.5,-6.85 0.501367,-3.949219 0.7,-5.9 0.454492,-3.50625 0.55,-6 v -0.05 q 0.08477,-4.06484 0.35,-5.5 1.243164,-3.45 1.75,-5.25 1.127344,-3.81152 -0.75,-6 -0.329883,-0.40547 -0.85,-0.5 -0.530469,-0.0527 -1,0.25 -0.411523,0.29297 -0.55,0.8 -1.941992,8.92559 -3,20.7 -0.399805,4.690234 -1.35,20.65 -0.746094,13.962305 -1.15,25.3 0.0014,0.0627 0,0.1 v 0.05 q -0.451758,5.460156 -0.3,8.55 v 0.6 q -0.650781,23.026172 -0.8,48.25 -0.05078,14.692383 0.1,18.45 0.342383,10.370898 2.1,17.95 v 0.1 q 0.658984,19.162891 4.8,35.3 1.181445,4.790039 2.9,8.45 1.90332,4.010547 4.8,7.5 V 93.3 q 1.375977,1.723828 2.35,4.65 V 97.9 q 0.613672,1.867969 1.7,5.55 0.01289,0.0371 0,0.05 9.246875,26.25937 42.75,29.4 11.641602,1.15508 28.75,-5.6 v 0 q 13.375977,-5.24805 26.55,-13.65 6.088672,-3.91387 10.8,-8.95 v 0 q 0.0791,-0.0566 0.1,-0.15 6.235156,-5.111328 10.6,-10.75 3.396875,-4.217578 7.35,-11 0.27207,0.355664 0.7,0.45 0.524023,0.17168 1,-0.1 0.476953,-0.270898 0.6,-0.8 1.181445,-4.176953 2.7,-8.15 0.06953,-0.13418 0.15,-0.3 0.120508,-0.185547 0.15,-0.4 0.07988,-0.139258 0.15,-0.3 0.212695,-0.131836 0.35,-0.4 1.965039,-3.491602 3,-5.5 v 0 q 0.531445,-0.981445 1,-1.95 -0.943164,6.182227 -1.85,12.55 -0.0418,0.512109 0.2,0.9 0.298437,0.435742 0.75,0.55 0.498633,0.158203 0.95,-0.05 0.443164,-0.19082 0.65,-0.65 4.331445,-9.181836 8.25,-19.35 0.02344,0.05293 0.05,0.05 0.339844,0.296094 0.75,0.3 0.442383,0.05215 0.8,-0.2 1.16582,-0.64668 1.8,-2.4 0.01484,-0.06387 0,-0.15 0.439453,-1.544141 0.6,-2.2 l -0.05,0.05 2.25,-8.4 q 0.07148,-0.01426 0.15,-0.05 1.260547,-0.391016 1.95,-3.2 l -0.1,0.2 q 0.298242,-0.771094 0.8,-3.15 l -0.05,0.05 q 0.389453,-1.434766 0.65,-3.05 v 0.05 q 0.798242,-4.018945 1.9,-11.9 l 0.15,-1.2 0.05,-0.05 q 3.430664,-11.319336 5.25,-18.5 2.65781,-10.3099609 3.65,-18.4 v 0.05 q 0.31543,-1.949219 0.4,-3 v 0 q 0.21094,-2.306445 -0.5,-3.45 -0.0602,-0.108984 -0.15,-0.2 4.51367,-21.523438 7,-34.35 3.85117,-20.02793 6.3,-36.3 1.66641,-11.10605 2,-15.1 0.94688,-10.02793 -0.4,-15 v 0 q -0.54531,-2.00742 -1.85,-3.15 h 0.05 q -2.27617,-2.20078 -4.65,0.4 v 0 q -0.92305,0.84785 -1.35,6.5 -0.33906,4.84707 -0.05,6.35 0.14766,0.93203 0.75,3 0.52441,1.57969 0.6,2.5 v 0.05 q 0.15898,1.1334 0,2.65 v 0.05 q -0.0291,0.99141 -0.3,2.85 v 0.05 q -0.42676,5.108984 -1.75,14.8 -1.27637,10.107813 -1.75,14.85 l -0.4,3.8 q 0.0291,0.06582 0,0.1 v 0 q -0.79902,4.161719 -4.05,21.45 v 0.05 q -1.04668,4.152344 -2.25,8.5 0.513672,-5.880859 1.05,-12.75 1.37285,-17.673633 2.1,-26.55 l 0.1,-0.75 q 1.39277,-8.561133 1.95,-13.2 0.8959,-7.682031 0.75,-13.55 0.007,-0.13594 0,-0.3 1.87559,-14.24141 2.65,-21.35 1.47773,-12.35742 1.85,-21.4 0.0502,-0.50801 -0.3,-0.9 -0.31152,-0.38633 -0.85,-0.45 -0.47813,-0.0803 -0.9,0.2 m -6.75,32.8 q 0.049,0.14453 0.1,0.25 -0.0315,0.24004 -0.1,0.5 0.0145,-0.35645 0,-0.75 m -4,-3.15 q 0.434961,-0.72988 0.8,-1.05 0.19043,16.26191 -0.9,34.6 v 0.1 l -0.95,7.15 h 0.05 q -1.173047,8.041016 -2.6,25.2 0.627734,-12.684375 0.15,-29.5 v 0 q 0.786133,-8.060352 0.05,-14.25 v -0.3 q 0.466602,-3.639258 1.4,-10.65 v -0.05 q 0.374805,-3.74277 0.65,-5.95 0.531445,-3.70234 1.35,-5.3 m -11.95,15.5 v 0.05 q -0.07637,1.989063 -1.8,23.7 -0.693359,8.860742 -1.4,15.7 0.389844,-8.750781 0.7,-18.8 0.325391,-8.342969 1.4,-26.6 0.575,-9.06719 0.9,-15.95 0.913477,9.16973 0.2,21.9 m 27.7,-20.15 q 0.74492,0.70723 1.05,1.9 1.20117,4.65156 0.3,14.05 -0.26484,3.36172 -1.5,11.8 -0.0182,0.0053 -0.05,0 -0.43965,0.302539 -0.6,0.8 -0.29785,1.192969 -0.65,2.45 0.64277,-5.054883 0.9,-8.3 0.27949,-1.9541 0.3,-3 0.18887,-1.80176 0,-3.15 -0.0809,-1.1502 -0.7,-3.05 -0.54785,-1.83184 -0.7,-2.65 -0.21113,-1.34687 0.1,-5.7 0.32344,-4.25273 0.7,-4.95 0.44199,-0.44766 0.85,-0.2 v 0 m -9,8 q 0.5457,-3.28594 1.05,-6.4 -0.34785,3.06836 -0.85,6.95 l -0.2,-0.55 m -1.05,10.3 q -0.008,0.14297 -0.05,0.25 -0.64746,5.280859 -1.15,9.65 -5.9e-4,-1.682031 -0.05,-3.45 v 0 q 0.68438,-4.82109 1.15,-8.3 0.0674,0.92305 0.1,1.85 m -13,45.8 0.3,-1.45 q 0.710547,-3.712109 1.2,-6.5 -0.02324,9.270898 -0.5,16.9 -1.624609,25.852734 -1.9,28.85 Q 87.066016,-3.8248047 84.45,8.4 83.95,8.7546875 83.4,9.15 84.312695,3.1101563 85,-4.7 v 0 q 0.975195,-12.000391 1.4,-17.8 1.473828,-18.971289 2.9,-34.7 v -0.05 q 0.02793,-0.0072 0,-0.05 m -6.2,44.2 q -0.26582,3.6453125 -0.65,8.15 -0.913672,10.4162109 -2.15,17.7 v 0.05 q -1.038281,1.537891 -3.65,6.3 H 76.6 q -1.598437,3.063867 -3.3,6.5 1.718945,-5.09375 2.5,-9.1 0.526758,-2.280664 0.55,-3.2 v -0.05 q 0.0291,-0.03301 0,-0.1 4.52793,-12.1226563 6.5,-24.45 0.126953,-0.822852 0.25,-1.8 m 11.85,-8.9 -1,3.35 q 0.979297,-6.044141 1.95,-13 -0.459766,5.288086 -0.95,9.65 m -158.6,-94.9 q 0.146094,-0.62617 0.25,-1.2 -0.676367,5.28828 -1.25,9.6 -0.25,1.96211 -0.5,3.7 0.329688,-3.11035 0.55,-6.35 v -0.05 q 0.174609,-2.24414 0.95,-5.7 m 13.4,30.1 q 0.150391,-0.695312 0.3,-1.4 -0.141602,2.317969 -0.3,4.65 v 0.05 q -0.474805,10.291016 -1.3,32.9 -0.075,2.031445 -0.35,16.4 v 0.05 q 0.02402,0.06231 0,0.1 -0.319141,15.942969 -2.8,25.7 -0.08555,0.2671875 -0.1,0.5 -0.877148,-4.584766 -2,-9.9 0.349023,0.16543 0.75,0.1 0.517773,-0.07832 0.8,-0.5 0.33418,-0.430859 0.25,-0.95 l -0.2,-1.15 q 0.04336,-0.05332 0.05,-0.1 0.232422,-0.318945 0.2,-0.7 v -0.05 q 0.677539,-27.514063 2.65,-56.05 v -0.05 q 0.03477,-0.117578 0.05,-0.25 0.951758,-4.667578 2,-9.35 v 0 m -3.3,-8.3 q -0.128711,2.160352 -0.3,4.55 -0.525781,6.625 -1,13.2 0.01484,0.170313 0,0.3 -0.827344,4.070703 -1.6,8.1 0.541797,-8.088477 0.95,-12.2 0.799805,-7.23457 1.95,-13.95 m -20.7,8.95 q -0.752344,6.425 -1.05,10.45 l -0.45,2.25 q -0.841016,4.666992 -0.5,9.4 V -64 q -0.0033,0.06641 0,0.1 v 0.1 q -1.47793,18.74707 -2.45,33.1 0.02148,-2.724219 0,-5.4 0.06621,-1.085938 0.1,-2.2 l 0.65,-20.3 q 0.302734,-7.538086 0.95,-13.1 0.937891,-7.872266 2.75,-14.45 m 6.7,-0.7 q -1.391992,13.211328 -2.45,34.55 -0.224805,4.294922 -0.45,8.1 -0.108398,0.100977 -0.25,0.2 v 0.05 q -0.03867,-1.192773 -0.1,-2.25 -0.267773,-10.771484 1,-23.5 0.679102,-6.312695 2.25,-17.15 m 9.8,39.95 q 0.04043,-0.267969 0.05,-0.55 0.777148,-4.983789 1.65,-10 -0.687109,12.552344 -1.1,24.9 -0.589063,-3.325195 -1,-6 v -0.2 q 0.05723,-0.5875 0.15,-3.4 0.125195,-2.437109 0.25,-4.75 m -15.4,3.9 q 0.124414,3.454883 0.2,7.95 0.125,5.475195 0.2,12.45 0.112695,3.037891 0.25,5.85 0.02617,0.35293 0,0.7 0.02481,2.943945 0.05,5.95 -0.0084,0.8431641 -0.05,1.75 -0.1,1.6244141 -0.2,3.5 -0.349414,7.6626953 -0.75,11.9 v 0 q -0.418164,4.68418 -1.1,8.8 -0.942383,-6.7234375 -1,-6.95 l -0.6,-4.15 V 4.7 q -0.244727,-16.387305 1.65,-36.5 0.919531,-7.252148 1.35,-11.2 m 4.85,19 q 0.232227,0.08281 0.4,0.05 l 1.5,12.45 v 0.05 l 0.1,0.75 q 0.025,0.05117 0,0.1 0.0082,0.148437 0,0.3 0.03125,9.90039062 1.1,25.95 -1.767773,-9.8761719 -2.8,-15.3 v 0 q -0.02949,-0.14394531 -0.05,-0.3 0.0076,-0.18378906 0,-0.4 0.415234,-4.3837891 1.25,-8.45 v -0.05 q 0.01855,-0.04668 0,-0.15 l 0.35,-1.5 q 0.100195,-0.556836 -0.25,-1.05 -0.296484,-0.446289 -0.85,-0.55 -0.558008,-0.100977 -1.05,0.2 -0.445508,0.345508 -0.55,0.9 l -0.3,1.3 q -0.0459,-0.664844 -0.1,-1.4 0.01934,-0.543555 0.05,-1.1 0.15,-2.723828 0.25,-4.4 0.229883,-2.813867 0.5,-7.6 0.218945,0.154492 0.45,0.2 m 10.75,5.15 -0.1,5.35 q 0.02461,2.092383 -0.1,6.2 v 0.05 q 0.07207,3.696875 0.35,6.4 0.0834,0.47871094 0.45,0.8 0.364453,0.32480469 0.85,0.3 0.811328,0.14433594 1.35,-0.45 2.132227,14.819727 3.55,28.65 v 0.05 q 0.477539,3.950977 1.75,11.7 0.02305,0.05312 0,0.1 0.456445,11.642383 1.8,20.65 -1.022656,-2.257227 -1.9,-5 v 0 q -2.260547,-7.085352 -4.2,-16.65 -1.250586,-6.081836 -3.1,-17.15 -2.470117,-15.0619141 -3.5,-34.45 1.226758,-5.201367 1.65,-12 0.05703,-0.462891 0.1,-1.1 l 1.05,6.55 m -15.8,42.95 q 0.212891,-0.846484 0.4,-1.75 0.165039,3.33457 0.35,6.9 0.02168,0.469336 0.05,0.95 -0.410547,-2.910352 -0.8,-6.1 m 6.15,-0.25 q -0.4125,-2.993359 -0.7,-5.7 -0.267578,-3.038086 -0.4,-6 0.71543,3.906836 1.55,8.65 -0.0035,0.125391 -0.05,0.25 -0.231445,1.385352 -0.4,2.8 m 3.7,12.75 v 0.1 l 0.2,2.5 q -0.790234,-3.524805 -1.1,-6.85 0.446094,2.05332 0.9,3.95 v 0.3 m -13.15,-5.95 q -0.01426,-0.281055 -0.05,-0.6 0.835937,4.725586 1.85,8.6 v 0 l 2.7,9.7 q 0.274805,1.020117 0.55,1.95 l 0.15,0.5 0.1,2.1 q -9.77e-4,0.03691 0,0.05 0.249219,4.745508 0.85,11.75 l 0.95,11.7 v 0 q 0.363672,3.699414 0.5,4.65 v 0.05 q 0.444727,2.341797 1.25,4.05 -0.681445,2.232422 0.1,5.35 -2.082422,-2.758203 -3.55,-5.85 -1.627344,-3.43125 -2.75,-7.95 v 0 q -3.226758,-12.609766 -4.3,-27.1 0.05234,0.002 0.1,0 0.430664,-0.01016 0.75,-0.3 0.374023,-0.250586 0.5,-0.7 1.112109,-3.695703 0.9,-9.15 V 39.4 q -0.449414,-5.882031 -0.6,-8.75 m 7.8,16.05 q 0.488867,1.212891 1.05,2.7 l 2,5.75 v 0 l 0.05,0.1 0.75,4.55 q 0.440234,2.70918 1.2,5.25 -1.223437,-3.200781 -2,-5.15 -1.005078,-2.722656 -1.95,-5.7 -0.08594,-0.417773 -0.2,-0.85 l -0.65,-2.4 q 0,-0.142188 0,-0.3 V 50.6 q 0.0023,-0.03711 0,-0.1 v -0.05 q -0.116992,-1.918164 -0.25,-3.75 M -57.7,39.25 V 39.2 q -0.474609,-6.542773 -1.85,-16.45 -2.124023,-15.5052734 -2.25,-16.3 -0.18457,-3.4222656 -0.3,-7.15 1.00957,12.699219 2.75,23.25 1.850781,11.131836 3.1,17.25 1.960352,9.735352 4.25,16.95 V 56.7 q 2.251758,7.096094 5.65,11.3 1.017187,4.438086 2.25,8.45 -5.629883,-7.73457 -9.95,-18.05 0.01387,-0.07793 0,-0.15 -2.902344,-14.894531 -3.65,-19 m -10,25.2 q -0.0062,-0.04766 0,-0.15 3.180078,10.808398 6.65,21.3 -0.07402,-0.0543 -0.15,-0.15 h -0.05 q -2.081445,-1.892773 -4.3,-2.2 -0.456055,-1.166211 -0.75,-2.65 -0.113086,-0.895898 -0.45,-4.4 L -67.7,64.5 v -0.05 m 2.85,25.7 v 0 q -0.270312,-0.916602 -0.4,-1.75 0.633203,0.4875 1.95,1.55 v 0 q 1.081641,0.943555 1.5,1.7 0.30293,0.854688 0.3,2.2 v 0.05 q -0.04805,2.775 0,3.15 v -0.1 q 0.02481,0.347852 0.05,0.7 -0.777539,-1.289648 -1.4,-2.55 -1.464453,-3.123438 -2,-4.95 M -45,79.8 v -0.05 q -2.808203,-3.429297 -5.1,-8 3.525781,5.941602 7.65,10.7 0.733398,0.817188 1.4,1.55 -2.118359,-1.887109 -3.95,-4.2 m -5.15,-2.45 q -0.197461,-0.580859 -0.4,-1.3 1.705469,2.890039 3.65,5.25 v 0 q 5.637305,7.128711 13.85,10.7 6.275195,4.910156 15.6,6.5 3.367969,0.567969 6.5,0.9 0.317969,0.9877 1.4,1.6 0.834375,0.54922 2.35,0.75 -2.7771484,0.325 -5.45,0.15 v 0 q -11.941797,-0.50742 -21.9,-7.5 h -0.05 q -8.3125,-5.791992 -14.85,-15.85 -0.01445,-0.025 -0.05,-0.05 -0.191211,-0.301172 -0.4,-0.6 -0.01094,-0.07383 -0.05,-0.15 -0.08828,-0.194727 -0.2,-0.4 M -56.6,75.8 q 0.08496,-0.17793 0.05,-0.4 -0.03145,-1.830273 -0.2,-4 1.935352,3.790234 4.1,7.25 0.06094,0.107227 0.1,0.2 2.508594,6.008398 5.3,11.95 -1.905859,-2.174414 -2.75,-3.2 -2.686133,-3.489062 -4.55,-7.1 l -1.7,-3.45 v 0 L -56.5,76.1 v 0 q -0.04043,-0.123438 -0.1,-0.3 m 0.25,11.9 q 0.107422,0.14668 0.2,0.3 1.193359,3.791016 2.65,6.8 -0.722656,-0.885547 -1.5,-1.9 -0.705273,-2.518945 -1.35,-5.2 m -2.35,6.2 v 0 q -0.0018,-0.642969 -0.05,-1.2 l 0.2,0.25 v 0 q 2.56543,7.45039 4.9,13.9 -0.725,-0.71738 -1.45,-1.4 -0.02832,-0.0766 -0.1,-0.15 -3.160742,-4.39082 -3.5,-8.55 -0.01113,-0.0457 -0.05,-0.1 -0.0018,-0.323242 0.05,-2.75 m 18.1,4.1 -0.6,-1.2 q 0.848438,1.061914 1.7,2 0.433008,0.477734 0.85,0.95 Q -39.628906,98.946875 -40.6,98 M -49,96.55 v 0 q 3.822266,3.51895 7.95,8.05 -4.024609,-2.44004 -6.75,-5.85 -1.057031,-1.320313 -2,-2.95 0.407227,0.394727 0.8,0.75 m 12.85,0.1 v 0 q 10.641992,7.45742 23.4,8 5.3724609,0.32578 11.25,-1.15 1.60878906,0.14805 4.3,-0.95 v 0 q 1.7828125,-0.69434 3.85,-1.8 1.7859375,-0.72891 3.5,-1.65 0.179492,-0.05371 0.3,-0.15 8.699609,-1.672266 16.3,-6.15 3.952344,-2.280664 7.55,-4.85 -0.06816,0.879492 -0.9,2.05 -0.178906,0.186523 -0.35,0.35 -1.262695,1.212305 -2.5,2.4 -0.787695,0.835156 -1.45,1.6 -0.02441,0.02578 -0.05,0.05 -0.231055,0.244727 -0.45,0.45 -4.452148,3.624414 -11.95,8.15 -10.5769531,6.31777 -17.4,7.9 -8.3453125,1.9168 -17.8,-1.3 v 0 q -11.129883,-3.7457 -19.05,-12.5 -1.827148,-2.025195 -3.65,-4.5 2.489453,2.245313 5.1,4.05 m 33.2,-3.9 0.05,-0.05 q 3.41757812,-1.219922 7.1,-3 4.0427734,-1.93457 7.75,-4.15 0.07891,-0.01113 0.1,-0.05 h 0.05 q 0.3,-0.1 0.6,-0.2 h -0.05 q 2.877539,-0.789648 5.55,-1.2 -3.161328,2.226172 -6,3.95 v 0.05 q -1.783008,1.141602 -5.5,3.3 H 6.65 q -3.3353516,2.116016 -5.55,3.75 -1.84082031,1.395508 -3,2.4 -2.875,-0.05156 -6.05,-0.35 1.0429688,-1.561133 3.5,-3.4 0.7378906,-0.5125 1.5,-1.05 m -7.75,4.2 q -3.058008,-0.308008 -6.35,-0.85 -1.674609,-0.284961 -3.25,-0.7 5.091016,0.595898 11.2,-0.85 -1.104688,1.266406 -1.6,2.4 m -8.75,19 v 0 q 10.6560547,3.52695 21.75,2.3 9.945703,-1.09063 21,-6.1 2.585937,0.90566 7.8,-1.85 5.838281,-3.06719 11.95,-8.75 -0.566602,0.61523 -1.15,1.2 l -0.05,0.05 q -0.02832,0.0568 -0.1,0.1 l -0.9,0.75 -0.05,0.05 q -11.485352,9.07129 -18.55,12.75 v 0 q -10.718945,5.54219 -21,5 v 0 q -4.9330078,-0.175 -7.45,-0.35 v 0 q -3.5640625,-0.13711 -6.2,-0.35 -0.06406,-0.17715 -0.2,-0.35 -0.226172,-0.30762 -0.6,-0.45 -0.338477,-0.14004 -0.75,-0.1 l -2.95,0.45 h -0.05 l -0.55,-0.1 q -4.942773,-0.56875 -7.95,-2.6 h 0.05 q -1.861133,-1.3002 -5.65,-5.7 5.610352,2.07598 11.6,4.05 m 2.7,7.15 v 0 l 1,0.1 q -0.613281,0.64023 -1.9,0.75 -2.296875,0.1959 -4.35,-0.85 2.605859,0.3334 5.25,0 m 7.95,-7.65 q 2.9285156,0.18438 5.95,0 Q 7.9882812,114.95352 21,110.1 v 0 q -9.973047,4.35371 -19,5.35 -5.4464844,0.6082 -10.8,0 m -18.6,-5.2 h 0.05 q 0.113477,0.0623 0.2,0.1 -3.902148,-1.37559 -7.65,-2.8 l -2.05,-2.35 q -0.36582,-0.68965 -0.8,-1.45 0.115234,0.0744 0.2,0.1 1.079688,0.6752 4.9,3.25 h 0.05 q 3.09668,2.0334 5.1,3.15 m -10.3,-0.85 v 0 q 3.151953,5.24766 6.2,9 -5.120898,-1.20371 -9.15,-2.5 -3.251172,-0.99277 -6.55,-3.2 -0.05527,-0.0484 -0.15,-0.15 l -1.85,-1.65 -0.5,-1.45 v -0.05 q -0.174414,-0.46562 -0.35,-0.95 1.589453,1.45547 3.4,2.35 h 0.05 q 1.879492,0.90117 3.9,1.2 h 0.05 q 3.432422,0.51543 4.7,-1.1 0.348828,-0.39766 0.35,-0.95 0.0074,-0.28125 -0.1,-0.55 m 13.75,15.85 h 0.05 q 3.033398,1.77969 6.5,1.5 3.94668,-0.33379 4.85,-3.25 2.6509766,0.21484 6.2,0.35 2.5267578,0.17441 7.45,0.35 h 0.05 q 2.9828125,0.18223 6,-0.15 -0.7978516,0.33516 -1.6,0.65 H 5.5 q -16.341602,6.44473 -27.45,5.4 -31.499219,-2.95527 -40.3,-27.45 -0.01133,-0.0379 -0.05,-0.1 -0.288867,-1.02461 -0.55,-1.95 2.226562,3.26699 5.6,6.65 2.522656,3.33555 5.9,5.95 0.834961,2.63379 1.4,3.9 0.01074,0.0508 0,0.05 1.060156,2.52188 2.35,4.1 0.213477,0.22285 0.45,0.35 0.28457,0.13379 0.55,0.15 2.294922,0.14102 2.8,-2.2 v 0 q 0.233594,-0.84434 0.05,-1.8 1.150781,0.47734 2.25,0.8 5.586523,1.80273 13.3,3.4 2.18418,2.0668 4.25,3.3 m -21.45,-17 v 0.05 q -3.29668,-1.66133 -5.7,-5.45 h 0.05 q -0.548828,-0.87871 -1.1,-1.95 1.605469,1.85215 2.85,3.2 3.578516,3.79238 3.95,4.2 l -0.05,-0.05 M 82,17.5 q 0.520117,-2.402539 0.7,-3.55 0.287891,-0.352539 0.55,-0.7 -0.603906,1.973047 -1.25,4.25 m 1.5,10.75 q 0.413086,-1.05918 0.85,-2.3 -1.420703,6.892383 -2.9,14.65 -1.068555,5.410742 -1.3,6.95 h 0.05 q -0.596875,3.946484 -0.5,6.85 -2.770898,7.521289 -5.8,14.5 0.950195,-6.1125 1.95,-12.05 0.04883,-0.03906 0.05,-0.1 V 56.7 q 0.825781,-1.888672 1.45,-3.6 l 0.05,-0.05 q 1.004492,-2.8125 1.05,-3 0.01289,-0.01309 0,-0.05 0.823242,-3.018945 -0.6,-3.8 0.114453,-0.405273 0.2,-0.8 0.0092,-0.03574 0,-0.1 2.976172,-8.65 5.4,-16.8 0.01328,-0.03769 0,-0.1 l 0.05,-0.05 q 0.01504,-0.02695 0,-0.1 m 1.9,9.5 q -0.864648,2.910156 -1.8,5.75 0.194336,-1.089062 0.45,-2.4 1.157813,-6.075 2.25,-11.6 -0.588477,4.469141 -0.9,8.25 M 69.65,22.65 q -0.01387,0.07363 -0.05,0.15 -3.011133,6.45918 -9,19.8 h 0.05 q -5.360938,11.634961 -10.1,19.2 -3.328711,5.425781 -8.45,10.95 v 0.05 q -2.942773,3.223437 -6.15,6.15 0.955469,-1.091797 1.85,-2.25 1.315039,-1.59082 1.75,-2.3 1.108789,-1.528516 1.4,-2.85 0.118164,-0.504492 -0.15,-0.95 8.089258,-9.778125 15.65,-24.15 V 46.4 q 8.873633,-18.08457 13.5,-27.25 0.404102,-0.73457 0.75,-1.4 -0.504688,2.489062 -1.05,4.9 m 0.2,-8.95 Q 68.918555,15.141211 67.5,17.9 62.876367,27.084375 54,45.2 v -0.05 q -7.854492,14.935547 -16.25,24.8 -1.140625,0.289258 -2.45,1.15 -0.0125,0.05078 -0.05,0.05 -1.399414,1.137695 -2.05,1.55 -0.0098,0.04922 -0.05,0.05 -6.886328,5.361328 -10.3,7.95 v 0 q -0.326172,0.278711 -0.65,0.5 -1.998047,0.06973 -4.15,0.35 4.327344,-3.059961 8.15,-6.6 Q 44.836523,57.86543 58.2,31.3 68.225,11.340039 75.7,-15.1 74.169727,-1.3320312 72,10.95 70.880664,12.096875 69.85,13.7 m 8.75,7.35 q -0.348828,1.665234 -0.8,3.65 -1.571484,7.217578 -2,11.75 -0.01348,0.490039 0.25,0.85 0.07109,0.12793 0.15,0.2 -2.835742,6.677344 -6.35,13.7 l -0.05,0.05 q -0.260352,0.232422 -0.5,0.5 l 0.05,-0.05 q -4.801758,5.601563 -5.5,6.25 -1.30957,1.234961 -2.2,1.95 9.261523,-24.247852 16.95,-38.85 m -12.25,15 q -0.175,0.5 -0.4,1 V 37 q -6.003125,14.354102 -7.5,19.1 -0.0127,0.075 -0.05,0.1 -0.0125,0.175 -0.05,0.3 -0.107813,0.362109 -0.2,0.65 -2.240234,4.225391 -4.75,7.9 -7.372852,11.032617 -18.5,19.4 -0.330859,-0.249023 -0.75,-0.5 5.247852,-4.401758 9.85,-9.45 v 0 q 5.278711,-5.725586 8.7,-11.35 4.810742,-7.684961 10.25,-19.5 v 0 q 1.868164,-4.11543 3.4,-7.6 m -56.4,59.4 q -2.5828125,0.968164 -5.6,1.85 v 0.05 q -0.8488281,0.07207 -1.75,0.1 0.093945,-0.03906 0.15,-0.1 2.1353516,-1.566016 5.35,-3.6 v 0 q 3.782813,-2.191797 5.6,-3.35 h -0.05 q 4.467969,-2.742773 9.7,-6.65 0.367188,0.03301 0.7,0.05 -2.512305,2.32793 -4.6,4.15 -5.082422,4.465039 -9.35,7.4 -0.04551,0.07266 -0.15,0.1 M 32,85.65 q 0.388477,0.225 0.7,0.4 -3.423047,2.458203 -7.2,4.65 -1.560547,0.930664 -3.2,1.7 4.770312,-2.812305 9.7,-6.75 M 26.5,81.5 q -0.04082,-0.01856 -0.1,-0.05 0.337695,-0.236719 0.7,-0.55 -0.291406,0.319727 -0.6,0.6 m 7.4,11.85 h 0.05 q 0.111328,-0.123438 0.2,-0.25 0.406641,-0.372461 0.8,-0.75 4.052148,-3.874219 8.85,-7.55 -3.304883,4.750195 -5.55,8.5 v 0.05 q -0.953711,1.693164 -3.15,5.35 -0.01289,0.05234 -0.05,0.05 -0.410937,0.864258 -0.7,1.6 -5.332617,3.36875 -10.1,5.5 1.679102,-4.13242 6.85,-9.6 0.02441,-0.02656 0.05,-0.05 0.286133,-0.331445 0.6,-0.7 1.239063,-1.108984 2.15,-2.15 m 2.85,-6.4 Q 36.66621,86.654883 36.5,86.3 47.882227,77.710937 55.45,66.4 q 1.083398,-1.555273 2.1,-3.25 -0.301367,0.794531 -0.6,1.55 v 0.05 q -0.982812,2.702148 -1.7,4.6 -0.352539,0.143945 -0.6,0.5 -2.086719,3.001172 -5.95,8.15 -2.811914,1.722852 -5.65,3.9 v 0 q -3.305273,2.495703 -6.3,5.05 M 66.3,63.35 q -2.513672,5.474805 -5.25,10.7 -0.338867,-0.202734 -0.85,-0.35 3.246875,-5.233984 6.1,-10.35 m -6.85,2.3 v 0 q 0.397852,-1.05918 0.8,-2.15 1.665234,-0.251562 4.4,-2.65 -3.573633,6.490625 -7.75,13.2 -0.241602,0.08223 -0.55,0.15 0.03691,-0.0088 0.05,-0.05 0.555469,-1.688672 3.05,-8.5 m -7.2,13.5 q -0.326953,1.667383 -0.4,2.8 l -2.8,4.35 q -2.814648,4.2875 -4.6,6.8 H 44.4 q -2.574219,2.136133 -5.3,4.05 0.92207,-1.548047 1.45,-2.5 v 0 q 2.964453,-4.971289 7.8,-11.7 V 82.9 q 1.074805,-1.382031 2.05,-2.7 0.929883,-0.535352 1.85,-1.05 m 2.25,10.1 0.4,-0.9 q 1.214844,-1.532422 2.3,-3 -1.478711,2.34043 -2.9,4.25 0.105664,-0.123242 0.15,-0.3 0.03769,-0.0025 0.05,-0.05 M 21.25,106 q -0.12207,0.37441 -0.3,1.2 -8.491211,3.23359 -16.05,4.6 5.655078,-2.18438 13.05,-6.6 2.778516,-1.67754 5.15,-3.25 -1.301758,2.19375 -1.9,4.1 z"
                 id="path5" />
            </g>
          </g>
        </g>
      </g>
      <g
         id="Lenses"
         transform="matrix(2.8673401,0,0,2.8673401,767.05,365.95)">
        <g
           id="g26">
          <g
             id="g24">
            <g
               id="g22">
              <path
                 fill="#f9e519"
                 stroke="none"
                 d="m 111,39 q 3.94883,-10.305469 3.95,-21.15 0,-8.9 -2.85,-17.3 -2.8,-8.05 -7.95,-14.9 Q 83.6,30.4 67.75,70.9 76.800977,69.855273 85.8,68.4 94.846875,66.983594 100.95,58.15 107.05293,49.316211 111,39 M -13.7,35.15 q 4.2,-9.95 4.2,-20.8 0,-11.15 -4.45,-21.3 l -8.15,16.4 q -11.55,23.1 -30.35,57.3 15.8,-3.15 27.25,-14.6 7.4,-7.35 11.5,-17 z"
                 id="path14" />
              <path
                 fill="#72c311"
                 stroke="none"
                 d="M 99.25,-19.95 Q 92.3,-27 83,-31.1 68.85,2.75 62.2,18.15 50.4,45.55 40.25,66.9 q 10.1,4.4 21.25,4.4 2.95,0 6.25,-0.4 15.85,-40.5 36.4,-85.25 -2.3,-3.1 -4.9,-5.6 M -25.2,-23.4 q -2.95,-3.05 -6.65,-5.7 Q -50.1,0 -60,16.2 q -15.3,25.15 -27.1,45.9 11.3,5.7 24.15,5.7 5.4,0 10.5,-1.05 18.8,-34.2 30.35,-57.3 l 8.15,-16.4 Q -18,-16.3 -25.2,-23.4 Z"
                 id="path16" />
              <path
                 fill="#82d7e5"
                 stroke="none"
                 d="m 61.5,-35.6 q -3.55,0 -7,0.45 Q 47.35,-20.45 35.75,6.3 23,35.65 17.25,47.85 20.1,52.05 23.7,55.65 31,62.85 40.25,66.9 50.4,45.55 62.2,18.15 68.85,2.75 83,-31.1 72.75,-35.6 61.5,-35.6 m -123.7,-5.85 -1.5,2.4 q -3.7,6.55 -11.35,20.8 -7.3,13.65 -11.35,20.75 -7.3,12.836328 -21.9,38.2 0.12637,0.126367 0.25,0.25 0.1,0.1 0.15,0.25 0.15,0.15 0.25,0.3 0.05,0.1 0.1,0.25 0.15,0.15 0.25,0.3 0.15,0.15 0.25,0.25 0.1,0.15 0.2,0.3 0.05,0.1 0.1,0.25 0.05,0.15 0.15,0.25 0.1,0.15 0.15,0.3 0.1,0.1 0.2,0.25 0.1,0.15 0.15,0.3 0.15,0.1 0.25,0.25 0.1,0.15 0.2,0.3 0.05,0.1 0.15,0.25 0.15,0.15 0.35,0.3 0.05,0.15 0.15,0.3 0.1,0.1 0.25,0.25 0.15,0.15 0.3,0.3 0.15,0.15 0.35,0.3 0.1,0.15 0.25,0.3 0.1,0.15 0.2,0.3 0.1,0.15 0.2,0.25 0.1,0.15 0.25,0.3 0.1,0.15 0.15,0.25 0.15,0.15 0.35,0.35 0.05,0.1 0.15,0.25 0.15,0.15 0.25,0.3 0.15,0.15 0.25,0.25 0.1,0.15 0.25,0.3 0.1,0.15 0.15,0.3 0.15,0.1 0.25,0.25 0.15,0.15 0.35,0.3 0.2,0.2 0.4,0.35 0.2,0.15 0.45,0.35 0.2,0.15 0.4,0.3 0.15,0.15 0.3,0.3 0.15,0.1 0.35,0.25 0.25,0.1 0.5,0.25 0.15,0.15 0.35,0.3 0.2,0.15 0.4,0.35 0.15,0.15 0.35,0.3 0.15,0.15 0.3,0.3 0.25,0.15 0.45,0.3 0.2,0.15 0.35,0.3 0.2,0.2 0.45,0.35 0.2,0.15 0.4,0.35 0.1,0.1 0.25,0.25 0.2,0.2 0.4,0.35 0.15,0.15 0.3,0.3 0.15,0.15 0.35,0.3 0.15,0.15 0.3,0.3 0.1,0.15 0.25,0.3 0.1,0.15 0.25,0.25 0.1,0.15 0.15,0.3 0.1,0.15 0.2,0.25 0.05,0.15 0.1,0.25 0.05,0.15 0.15,0.3 0.1,0.1 0.2,0.25 0.1,0.15 0.2,0.3 0.1,0.15 0.2,0.25 0.1,0.15 0.15,0.3 0.1,0.1 0.2,0.25 0.05,0.15 0.15,0.3 0.05,0.1 0.1,0.25 0.04414,0.08848 0.1,0.2 2.175586,1.414648 4.5,2.6 11.8,-20.75 27.1,-45.9 9.9,-16.2 28.15,-45.3 -6.7,-4.8 -14.5,-7.35 -8.05,-2.65 -15.85,-5 z"
                 id="path18" />
              <path
                 fill="#b56bf8"
                 stroke="none"
                 d="m 23.7,-19.95 q -7.4,7.35 -11.45,17 -4.2,9.9 -4.2,20.8 0,8.2 2.45,15.95 2.3,7.5 6.75,14.05 Q 23,35.65 35.75,6.3 47.35,-20.45 54.5,-35.15 45.65,-34 37.65,-30 29.9,-26.1 23.7,-19.95 M -81.15,-38.3 q -12.346875,7.598633 -19.6,14.9 -7.4,7.35 -11.45,16.95 -4.2,9.9 -4.2,20.8 0,13.658008 6.3,25.3 0.3,0.1 0.55,0.25 0.2,0.15 0.4,0.35 0.15,0.05 0.3,0.1 0.25,0.15 0.5,0.3 0.0264,0.02637 0.05,0.05 14.6,-25.363672 21.9,-38.2 4.05,-7.1 11.35,-20.75 7.65,-14.25 11.35,-20.8 -5.109375,-6.845898 -17.45,0.75 z"
                 id="path20" />
            </g>
          </g>
        </g>
      </g>
      <g
         id="Frame"
         transform="matrix(2.8673401,0,0,2.8673401,767.05,365.95)">
        <g
           id="g35">
          <g
             id="g33">
            <g
               id="g31">
              <path
                 fill="#ea27e0"
                 stroke="none"
                 d="m 33.95,-30.45 q -1.346094,0.938867 -3.1,2.3 v 0.05 q -2.275195,1.830859 -5.15,4.4 l -0.05,0.05 q -0.301367,0.260352 -0.65,0.55 l 0.1,-0.05 q -0.624219,0.535938 -1.3,1.15 -0.02578,0.02363 -0.05,0.05 -0.948242,0.755078 -2.15,1.9 -0.0057,0.05566 -0.05,0.1 -0.04063,0.03457 -0.1,0.05 -0.514453,0.560742 -1,1.15 -0.148242,0.182422 -0.2,0.4 -0.195508,-0.05566 -0.4,-0.05 -0.132617,0.01055 -0.3,0 -0.389648,0.07129 -0.65,0.4 -0.257031,0.320313 -0.5,0.65 -2.805469,3.638477 -5.15,8.4 -0.0098,0.00762 -0.05,0 -0.323437,-0.065039 -0.65,0.05 -0.281641,0.1628906 -0.45,0.45 -1.632422,2.8511719 -2.45,8.4 l -1,2.95 Q 8.4908203,2.9583984 8.3,3.1 7.9669922,3.39375 7.9,3.85 7.8820312,4.3425781 7.85,4.8 7.7988281,5.0576172 7.8,5.2 7.7724609,5.9097656 7.7,6.55 7.7003906,6.9251953 7.85,7.2 7.8216797,7.3324219 7.8,7.45 7.7794922,7.5890625 7.75,7.7 7.6476562,7.9035156 7.6,8.15 q 0.020508,0.049805 0,0.1 -0.1001953,0.2351562 -0.25,0.45 0.014063,0.025391 0,0.05 -0.1677734,0.3126953 -0.1,0.65 0.00586,0.062305 0,0.1 L 7.3,9.55 Q 6.9005859,9.4787109 6.5,9.4 6.2253906,9.3457031 5.95,9.3 5.7251953,9.2582031 5.5,9.2 H 5.45 q -0.031641,0.017383 -0.1,0 V 9.15 Q 5.3005859,8.8951172 5.15,8.7 5.0470703,8.5431641 4.85,8.4 4.4974609,8.1623047 4.05,8.25 3.6058594,8.3357422 3.35,8.7 H 3.3 Q 3.2291016,8.8634766 3.15,9 3.1255859,9.0023438 3.05,9 2.5986328,8.9664063 2.1,8.95 1.7796875,8.94805 1.45,8.95 1.25,8.95156 1.05,8.95 0.55,8.975195 0.05,9 -1.0134766,9.1210938 -1.8,9.75 -2.7714844,9.3410156 -3.85,9.55 -4.7902344,9.7884766 -5.7,10.1 q -0.056445,0.01992 -0.15,0.05 -0.065039,0.02051 -0.15,0.05 -0.1296875,0.03086 -0.25,0.05 -0.2712891,0.127344 -0.55,0.25 -0.1613281,0.07793 -0.35,0.15 -0.5072266,0.20332 -1,0.45 Q -8.22168,10.758203 -8.3,10.4 -8.6117188,8.9480469 -9.05,7.15 v 0 -0.2 Q -9.04512,6.875391 -9.05,6.8 -9.0951172,6.5203125 -9.1,6.2 -9.1017578,5.9984375 -9.2,5.8 -9.2671875,4.7056641 -9.4,3.6 -9.4402344,3.3511719 -9.6,3.15 -9.5109375,2.8902344 -9.6,2.6 -9.7113281,1.9375 -9.8,1.25 -9.8115234,1.2380859 -9.85,1.2 q 0.0084,-0.075391 0,-0.15 -0.154687,-0.6640625 -0.3,-1.3 0.01484,-0.13261719 -0.05,-0.3 V -0.6 q 0.102734,-1.5740234 0.05,-2.6 -0.07754,-1.7355469 -0.75,-2 -0.238867,-0.2855469 -0.55,-0.35 -0.147461,-0.0375 -0.35,0 -0.02734,0.00996 -0.1,0 v 0 q -0.527344,-1.2541016 -1.2,-2.4 -0.11582,-0.2205078 -0.35,-0.35 -0.525,-2.24082 -1,-3.85 -1.935937,-7.162305 -4.95,-11.05 -0.251367,-0.316992 -0.65,-0.4 -0.405078,-0.08926 -0.8,0.1 -0.333008,0.190234 -0.5,0.55 -2.927734,-6.569531 -6.75,-9.8 -0.757227,-0.599023 -1.55,-1.1 -0.322656,-0.207812 -0.7,-0.2 -0.128906,0.0375 -0.25,0.05 -3.680078,-5.217773 -10,-7.65 -3.291992,-1.221484 -7.3,-1.7 -0.457617,-0.05527 -0.95,-0.1 -0.850195,-0.09922 -1.8,-0.1 -0.01211,-0.0025 -0.05,0 -2.147852,-0.14043 -4.65,-0.05 -0.06894,-0.141211 -0.2,-0.25 -0.328711,-0.267773 -0.75,-0.25 -1.309961,0.152539 -1.7,0.35 -0.257227,0.108008 -0.45,0.2 -0.186719,-1.95e-4 -0.4,0.05 -0.12832,0.02871 -0.25,0.05 -0.207031,0.04102 -0.45,0.05 -0.08398,-0.02207 -0.2,-0.05 -0.286719,-0.06426 -0.55,0 -0.230469,-0.231055 -0.6,-0.3 -0.617187,-0.131641 -1.25,-0.25 -2.699219,-0.373047 -5.25,-0.1 -0.331445,0.06484 -0.6,0.3 -0.266797,0.24668 -0.35,0.6 -0.02832,0.118555 -0.05,0.2 -1.208203,0.316797 -2.4,0.6 -0.798438,0.09394 -1.6,0.25 h 0.05 q -1.717188,0.269727 -3.35,0.95 v 0 q -0.694922,0.326172 -1.4,0.7 -6.040039,2.039648 -10.5,4.75 -0.444336,0.27168 -0.9,0.55 -0.292187,0.195508 -0.4,0.55 -0.05332,0.362305 0.15,0.65 0.04082,0.09141 0.1,0.15 -2.418359,1.554883 -4.8,3.4 -0.175,0.1375 -0.35,0.25 -0.308203,0.269141 -0.4,0.65 -3.170117,1.768359 -5.3,2.95 0.143555,-0.281641 0.25,-0.6 0.180469,-0.327734 0.1,-0.7 -0.08633,-0.359375 -0.4,-0.6 -0.256641,-0.24668 -0.65,-0.3 -1.80195,-0.272461 -4.55,2.95 -0.0885,0.130859 -0.15,0.25 -0.05,0.06465 -1.8,2.35 -0.4832,0.687109 -1.15,1.55 -0.0115,0.04961 -0.05,0.05 l -0.3,0.4 q -0.009,0.03828 -0.05,0.05 l -0.95,0.65 q -0.35293,0.266016 -0.45,0.7 -0.0648,0.3125 0,0.6 -0.22812,0.376562 -0.45,0.7 -0.5252,0.81582 -0.9,1.4 0.0287,-0.791406 -0.05,-1.6 7.8e-4,-0.37832 -0.3,-0.7 -0.26348,-0.272266 -0.7,-0.35 -0.36758,-0.02148 -0.7,0.2 -0.34609,0.217773 -0.5,0.6 -1.73066,5.411133 -2.6,11.4 l -0.9,1.7 q -0.21484,0.434375 -0.1,0.85 0.11641,0.3232422 0.3,0.5 -0.14824,0.4734375 -0.3,0.9 v 0 q -0.61211,1.8632813 -0.7,3.3 10e-4,0.75566406 0.1,1.4 0.0826,0.3367187 0.35,0.55 v 0 q -0.32734,0.771875 -0.35,1.05 -0.0482,0.3142578 0,0.45 0.1543,0.4779297 0.45,0.6 -0.0668,0.1960938 -0.1,0.4 -0.47656,2.7085937 -0.3,6.4 0.0723,1.048633 0.2,2.15 0.0297,0.354883 0.05,0.75 0.0781,0.575391 0.2,1.15 H -117 q -0.45137,0.104102 -0.7,0.5 -0.25059,0.396094 -0.15,0.85 0.31113,1.372461 0.75,3.05 0.0461,0.07481 0.05,0.15 0.78574,2.699805 1.9,6.15 0.0461,0.110352 0.05,0.2 0.0459,0.06016 0.05,0.1 l 0.1,0.2 q 0.0301,0.194336 0.1,0.35 0.0303,0.14707 0.1,0.25 0.0123,0.06641 0,0.1 0.19707,0.5 0.4,1 0.0656,0.09102 0.1,0.15 -0.024,0.09707 -0.05,0.15 -0.0521,-0.06055 -0.1,-0.15 -0.17441,-0.307617 -0.5,-0.45 0.0652,-0.333594 -0.1,-0.65 -1.13613,-2.235937 -2.35,-3.9 -0.23184,-0.345898 -0.65,-0.45 -0.40527,-0.0957 -0.8,0.1 -0.34551,0.188867 -0.5,0.55 -0.14746,0.423437 0,0.8 0.65801,1.923047 1.6,3.95 0.16914,0.316602 0.4,0.45 -0.002,0.261719 0.05,0.5 0.10098,0.214844 0.25,0.5 0.7998,1.60332 1.75,3.3 1.02852,1.785742 2.2,3.65 1.23848,2.654102 2.25,4.55 0.22559,0.437109 0.65,0.55 0.26309,0.100977 0.45,0.05 l 0.05,0.2 q -0.0943,0.162695 -0.15,0.35 -0.11445,0.473633 0.1,0.85 0.33789,0.538477 0.6,0.95 0.21602,0.345508 0.6,0.45 0.37793,0.151367 0.75,0 0.12578,-0.04863 0.2,-0.15 0.24395,-0.113672 0.35,-0.35 0.18984,-0.294141 0.15,-0.65 0.23594,0.475391 0.45,0.9 1.39902,2.802148 2.7,5 0.20996,0.371289 0.4,0.7 0.0629,0.08926 0.1,0.15 l 0.05,0.05 q 0.26211,0.367969 0.7,0.45 0.34648,0.06152 0.65,-0.1 1.10664,1.519141 2.25,2.9 0.745703,0.899023 1.5,1.75 2.969336,3.311328 6.15,5.9 1.260742,0.99043 2.5,1.85 0.251758,0.176953 0.5,0.2 0.110352,0.219531 0.3,0.35 0.711133,0.501172 1.45,0.9 h -0.05 q 2.433984,1.499609 5,2.6 0.300195,0.127734 0.6,0.25 0.03848,0.01035 0.05,0 0.399805,0.176758 0.75,0 0.260547,-0.07109 0.4,-0.25 0.110352,-0.109375 0.15,-0.25 0.08164,-0.127734 0.1,-0.25 0.400781,0.187891 0.8,0.35 1.853516,0.823633 3.65,1.35 0.279883,0.07832 0.5,0 0.208594,0.242969 0.5,0.3 2.450977,0.648828 4.85,0.75 0.377539,0.01387 0.65,-0.25 0.158594,-0.0834 0.25,-0.25 1.271094,0.461133 2.5,0.8 0.503711,0.171875 1,0.3 0.835156,0.233008 1.65,0.4 0.08105,0.05606 0.15,0.05 v 0 q 0.423437,0.115625 0.75,-0.1 0.374609,-0.209375 0.45,-0.6 0.03691,-0.05176 0.05,-0.1 5.43418,0.601172 10,0.15 0.369141,-0.04316 0.6,-0.35 0.285156,-0.25 0.3,-0.65 0.0066,-0.156445 -0.05,-0.35 0.252148,0.0047 0.5,-0.05 0.127344,0.314258 0.4,0.45 0.341797,0.216602 0.7,0.1 2.224609,-0.475 6.55,-1.5 h 0.05 q 3.89043,-0.946484 6.55,-2.15 0.369922,-0.146289 0.5,-0.55 0.175391,-0.349805 0,-0.75 -0.112109,-0.328906 -0.45,-0.5 0.06894,-0.105859 0.1,-0.25 0.0918,0.0086 0.15,-0.05 0.05938,0.03731 0.1,0.05 0.355273,0.114062 0.7,-0.05 0.08711,-0.03926 0.15,-0.1 1.279492,-0.544336 2.45,-1.15 0.73125,-0.335547 1.4,-0.7 2.051367,-1.054297 3.8,-2.15 0.59082,-0.355273 1.15,-0.75 0.300781,-0.177344 0.4,-0.55 0.113281,-0.318945 -0.05,-0.65 -0.08418,-0.249414 -0.3,-0.4 0.670313,-0.482031 1.3,-0.95 2.09082,-1.575 3.8,-3.15 v 0 q 1.290234,-1.125 2.35,-2.25 0.291016,-0.28418 0.3,-0.7 0.0068,-0.359766 -0.25,-0.65 -0.180078,-0.216602 -0.45,-0.3 2.030859,-2.380078 3.85,-5.05 0.222852,-0.270117 0.2,-0.65 0.266406,-0.06016 0.45,-0.3 0.07793,0.111133 0.2,0.2 0.257422,0.189648 0.55,0.2 0.3375,0.0039 0.6,-0.2 0.260547,-0.14082 0.35,-0.45 0.08809,-0.13457 0.15,-0.3 1.745508,-4.519727 2.8,-10.35 0.07891,-0.248047 0,-0.5 0.193164,-0.202344 0.25,-0.5 0.192383,-1.202734 0.35,-2.5 l 0.05,-0.1 q 0.0086,-0.09824 0,-0.2 V 27.2 l 0.1,-0.65 q 0.038867,-0.119141 0.05,-0.25 0.011523,-0.125 0,-0.25 0.1177734,-0.9625 0.25,-1.95 v 0 q 0.1001953,-0.961133 0.2,-1.95 0.047656,-0.03633 0.1,-0.1 0.070312,0.202734 0.15,0.35 0.1365234,0.322266 0.4,0.45 0.2517578,0.153516 0.5,0.15 0.074023,0.0096 0.15,0 0.321875,-0.05527 0.55,-0.3 0.2451172,-0.241602 0.3,-0.6 0.1939453,-1.411914 0.15,-3 0.028516,-0.161523 0,-0.35 0.3246094,-0.290039 0.7,-0.55 0.099805,-0.07578 0.2,-0.15 0.3572266,-0.292969 0.75,-0.55 l -0.05,0.05 q 0.5923828,-0.365234 1.25,-0.6 0.088672,-0.03047 0.15,-0.1 0.2082031,-0.04121 0.35,-0.15 0.06582,0.01152 0.1,0 0.044141,-0.01523 0.1,-0.05 0.6023437,-0.185938 1.25,-0.35 0.8072266,-0.159375 1.4,-0.65 0.74160156,0.306836 1.6,0.2 0.2,0.0098 0.4,0 0.2,-0.0027 0.4,0 0.5574219,0.0051 1.05,0.05 0.087305,1.95e-4 0.15,0 0.9375,0.04453 1.85,0.15 0.060352,0.03027 0.1,0 0.4371094,2.079492 1.05,4.9 V 20.9 q 0.1322266,0.698437 0.3,1.35 0.036523,0.156641 0.05,0.3 0.1335937,0.444336 0.5,0.65 0.079688,0.05508 0.1,0.05 0.019727,0.184961 0.05,0.35 0.1,0.577148 0.2,1.05 V 24.6 l 0.3,1.65 0.35,-0.1 v 0.05 q 0.042969,0.116602 0.05,0.2 -0.044336,0.105273 -0.1,0.2 -0.1607422,0.299609 -0.15,0.65 v 0.05 q 0.087109,0.507812 0.2,1 0.039648,0.157617 0.05,0.25 0.078711,0.340039 0.1,0.65 1.2443359,6.948242 2.65,11.5 0.156445,0.39082 0.5,0.6 0.387305,0.223047 0.8,0.15 0.412891,-0.07168 0.65,-0.4 0.292578,-0.329883 0.25,-0.75 0.01641,-0.175195 0,-0.35 0.102148,0.198047 0.2,0.4 0.02559,0.04961 0.05,0.1 0.07949,0.168359 0.2,0.3 -0.07988,0.346094 0.05,0.7 0.296289,0.631836 0.6,1.25 0.03359,0.08203 0.05,0.1 0.02285,0.08086 0.05,0.1 0.724219,1.920312 1.45,3.65 1.374219,3.285937 2.75,5.95 0.211133,0.434961 0.65,0.55 0.438281,0.166016 0.85,-0.05 0.180078,-0.08965 0.3,-0.25 1.655273,2.780273 3.05,4.55 0.308984,0.355273 0.75,0.4 0.436133,0.08477 0.8,-0.2 0.203711,-0.12168 0.3,-0.35 1.345703,1.763086 2.65,3.3 1.231641,1.466602 2.45,2.75 0.08809,0.233398 0.25,0.4 0.125,0.125 0.2,0.2 0.125,0.125 0.25,0.25 v 0 q 0.857422,0.868164 1.7,1.6 1.809961,1.475781 3.75,2.4 0.398438,0.178711 0.8,0.1 0.401758,-0.08867 0.65,-0.4 0.293555,-0.299609 0.3,-0.7 0.05,-0.405273 -0.2,-0.75 -0.05762,-0.131445 -0.15,-0.3 1.245898,0.771289 2.9,1.6 0.0957,0.06328 0.15,0.1 v 0 q 0.142383,0.435937 0.5,0.65 0.625,0.35 1.2,0.7 0.40332,0.226953 0.8,0.1 0.436914,-0.09238 0.65,-0.5 0.08984,-0.124023 0.1,-0.3 1.917969,1.312109 3.75,2.1 1.882031,0.850391 3.7,1.15 0.101562,0.04609 0.2,0.05 0.15,-0.0021 0.3,0 0.398828,0.108203 0.75,-0.1 0.160156,-0.09902 0.25,-0.25 1.222852,0.385156 2.5,0.7 h 0.05 v 0 l 0.4,0.1 H 55.4 q 1.110352,0.327148 2.85,0.6 0.428906,0.06699 2.75,-0.1 2.367578,-0.179883 6.1,-0.45 2.548437,-0.177148 0.65,-0.45 0.621094,-0.09102 1.25,-0.2 -0.189844,0.392773 -0.05,0.8 0.153516,0.408789 0.55,0.6 0.389648,0.189258 0.8,0.05 1.999023,-0.686523 5.9,-1.45 0.438867,-0.05742 0.85,-0.15 -7.81e-4,0.207617 0.05,0.4 0.18125,0.375195 0.55,0.55 0.365234,0.171289 0.75,0.05 1.54707,-0.458398 3.3,-1.2 0.775,-0.286719 1.55,-0.65 0.286328,-0.141016 0.4,-0.4 0.327539,0.01953 0.6,-0.15 0.374414,-0.177734 0.75,-0.4 -0.478711,0.824414 -0.75,1.65 -0.14043,0.40957 0.05,0.8 0.19082,0.398242 0.6,0.55 0.305078,0.104687 0.6,0 0.100586,-0.0016 0.2,-0.05 2.739844,-1.315234 5.4,-3.3 0.02031,-0.02598 0.05,-0.05 v 0 q 0.08984,-0.04766 0.15,-0.1 3.025,-2.35332 6.55,-6.25 0.143359,-0.08066 0.2,-0.25 0.830078,-0.861523 1.65,-1.8 l 0.05,-0.05 q 1.13926,-1.314258 2.8,-3.2 0.24766,-0.243164 0.3,-0.55 0.25332,-0.08086 0.45,-0.3 0.45781,-0.529883 0.95,-1.1 0.95937,-1.127734 2.05,-2.45 0.6,-0.675 1.2,-1.4 0.2584,-0.277344 0.25,-0.7 -0.005,-0.364453 -0.3,-0.65 0.002,-0.02481 -0.05,-0.05 0.26914,-0.325977 0.5,-0.65 0.3957,1.901367 2.35,1.8 0.36191,-0.0033 0.65,-0.25 0.2832,-0.187305 0.35,-0.55 1.52559,-5.648633 2.8,-11.9 0.0457,-0.07461 0.05,-0.2 0.11992,-0.323828 0,-0.65 0.17578,-0.2125 0.2,-0.5 0.10625,-0.446094 0.2,-0.9 V 36.45 36.4 q 0.0428,-0.09746 0.05,-0.2 l 0.05,-0.55 q 0.21992,0.154492 0.5,0.15 0.39922,-0.0082 0.7,-0.3 1.21699,-0.913867 1.4,-4.15 0.0141,-0.310938 -0.15,-0.6 0.15254,-0.203125 0.15,-0.5 0,-0.2 0,-0.4 V 29.8 q -0.0502,-0.885156 -0.1,-1.65 -0.0203,-0.363672 -0.05,-0.7 -0.009,-0.178906 -0.05,-0.35 -0.0838,-2.175195 -0.15,-3.1 -0.0961,-2.619141 -0.3,-5.15 v -0.2 q -0.031,-0.31875 -0.25,-0.6 -0.025,5.86e-4 -0.05,-0.05 l 0.1,-0.45 q 0.0781,-0.223047 0.05,-0.5 v 0 q -0.057,-0.442969 -0.25,-2.55 -0.0277,-0.293164 -0.2,-0.55 0.12246,-0.211133 0.1,-0.5 -0.15,-1.698828 -0.4,-4.15 0.004,-0.1523437 0,-0.25 0.0531,-0.1232422 0.05,-0.25 0.0178,-0.4048828 0,-0.8 0.0566,-0.5855469 0.05,-1.15 0.17188,0.5783203 0.3,1.15 0.67617,2.904688 0.95,5.65 0.057,0.2625 0.2,0.45 -0.0934,0.223828 -0.1,0.45 0.46035,4.656055 -0.2,8.8 -0.0299,0.38457 0.2,0.7 0.2252,0.313086 0.6,0.35 0.38418,0.08027 0.7,-0.15 0.3127,-0.225586 0.35,-0.6 0.68945,-4.35625 0.2,-9.25 9.8e-4,-0.250195 -0.15,-0.45 0.10391,-0.231641 0.05,-0.5 -0.26582,-2.657812 -0.9,-5.45 -0.42559,-1.9544922 -1.05,-4 h 0.05 q 0.37852,0.1716797 0.75,0 0.37754,-0.1671875 0.5,-0.55 0.18359,-0.378125 0,-0.75 -0.97773,-2.21757812 -2.15,-4.5 -0.0363,-0.2164063 -0.2,-0.45 0.009,-5.859e-4 0,-0.05 -0.0221,-0.042578 -0.05,-0.1 0.25332,-0.2988281 0.25,-0.7 0,-0.55 0,-1 0.004,-0.4386719 -0.3,-0.75 -0.31133,-0.3037109 -0.75,-0.3 -0.27363,-0.00234 -0.5,0.1 -0.0113,-0.043359 -0.05,-0.1 -0.0244,-0.1888672 -0.15,-0.75 -0.11855,-0.6068359 -0.35,-1.65 0.009,-0.1240234 0,-0.2 -0.0822,-0.253125 -0.2,-0.35 v 0 q -0.5623,-0.7634766 -1.15,-0.4 -0.20977,-0.023242 -0.4,0.15 -2.54316,-6.44043 -4.05,-10.45 -0.11777,-0.335937 -0.5,-0.5 -0.32051,-0.15957 -0.7,-0.05 -0.33633,0.167773 -0.5,0.5 -0.15957,0.369922 -0.05,0.7 0.83496,2.182812 1.95,5.05 -1.35605,-1.780078 -2.95,-3.75 -0.13711,-0.176172 -0.35,-0.3 -0.0426,-0.2625 -0.25,-0.5 -0.78379,-0.924414 -1.6,-1.9 v -0.05 l -1.35,-2.2 v 0 q -0.0117,-0.05137 -0.05,-0.1 -0.0941,-0.363867 -0.45,-0.6 -2.741602,-4.362109 -5,-7.05 v 0 q -3.108008,-3.833203 -6.5,-6.3 -0.305078,-0.224219 -0.7,-0.2 -0.340039,0.03281 -0.6,0.3 -0.267773,0.260156 -0.3,0.6 -0.02344,0.398242 0.2,0.7 1.104492,1.485742 2.4,3.15 -1.366992,-0.61875 -2.75,-1.15 -0.05019,-0.02852 -0.1,-0.05 h -0.05 q -0.0092,-0.01406 -0.05,-0.05 h -0.05 q -0.06445,-0.04434 -0.15,-0.1 l -0.2,-0.1 q -2.98418,-1.969336 -5.8,-3.2 h 0.05 q -1.187305,-0.507617 -2.4,-0.85 -0.394141,-0.09414 -0.8,0.1 -0.204883,0.157422 -0.35,0.35 -0.159375,-0.337305 -0.55,-0.5 -0.387305,-0.170703 -0.8,0 l -1,0.35 q -6.663867,-1.354297 -9.45,-2.5 -0.304297,-0.125977 -0.65,-0.05 -0.3125,0.075 -0.55,0.3 -0.228711,0.269531 -0.3,0.6 -0.0127,0.340625 0.15,0.65 0.191992,0.374219 0.4,0.7 -2.152344,-0.407422 -3.9,-0.7 -0.157813,7.81e-4 -0.3,0 -0.05156,0.01543 -0.1,0 -0.107422,-0.03184 -0.25,-0.05 -1.915039,-0.312891 -3.3,-0.45 h -0.05 q -3.874219,-0.294336 -6.8,1.05 -1.607031,0.773437 -2.9,1.95 -0.447852,0.174805 -0.9,0.3 -0.01699,1.95e-4 -0.05,-0.05 -0.09102,-0.324805 -0.4,-0.55 -0.310938,-0.170508 -0.7,-0.15 -0.4375,0.08359 -0.9,0.2 -0.243945,0.06426 -0.45,0.2 -0.23418,-0.06856 -0.55,0 -0.384961,0.09004 -0.8,0.2 -4.305664,1.139844 -9.15,4.4 M 17.9,-9.95 q 0.394336,-0.03418 0.65,-0.35 2.466992,-3.014063 5.45,-6.35 h 0.05 q 0.166016,-0.180859 0.2,-0.4 0.293164,-0.05273 0.5,-0.25 0.02559,-0.02422 0.05,-0.05 0.838086,-0.787891 1.65,-1.65 h 0.05 q 1.025781,-1.075 2.15,-2.15 0.654883,-0.419531 1.35,-0.95 3.385156,-2.45957 7.9,-6.9 2.771094,-1.174023 5.2,-2.15 0.713867,-0.243164 1.4,-0.5 0.258203,-0.09356 0.4,-0.3 0.283789,0.06797 0.55,-0.05 0.354883,-0.104883 0.7,-0.25 0.110547,0.273633 0.35,0.45 0.358789,0.27793 0.8,0.2 0.435156,-0.04141 0.7,-0.4 0.49707,-0.667383 1.1,-1.25 0.167187,-0.02246 0.3,-0.1 h -0.05 q 1.075,-0.275 2.1,-0.6 v 0.05 q 4.754687,-1.283203 9.05,-1.55 h 0.05 q 0.199414,0.03106 0.35,0 0.167383,0.09277 0.35,0.1 3.229297,0.508789 7.9,1.5 1.385352,0.500391 2.8,0.5 1.148828,0.247656 4.15,1.05 0.986133,0.252344 2.15,0.55 0.322852,0.10957 0.6,0 0.204687,0.223438 0.5,0.3 0.2,0.05 0.4,0.1 0.638477,0.194531 1.25,0.35 2.686914,0.706641 4.75,1.05 0.0092,0.05019 0,0.05 -0.124805,0.379297 0,0.7 0.175781,0.380664 0.5,0.55 5.299609,2.496289 10.65,7.55 v 0 q 0.813086,0.811133 1.8,1.8 1.248437,1.316602 2.75,2.95 0.21465,0.238086 0.45,0.3 0.066,0.266211 0.25,0.45 1.78848,2.013867 3.9,4.55 h 0.05 q 2.10547,3.1068359 4.1,5.15 0.78867,0.7902344 1.55,1.4 0.22363,0.5810547 0.45,1.15 0.0287,0.190625 0.05,0.35 0.0356,0.3042969 0.2,0.5 -0.12266,0.2621094 -0.1,0.55 0.37266,3.9730469 1.05,9.95 0.0494,0.4322266 0.1,0.85 v -0.1 l 0.05,0.55 -0.1,2 q -0.05,1.15 -0.1,2.2 -0.0125,0.283594 0.1,0.5 -0.14219,0.251758 -0.15,0.55 -0.19961,5.353906 -0.15,8.55 v 0.1 q 0,0.321875 0,0.6 v 0.05 q -0.2709,1.673047 -0.45,3.25 -0.008,0.175781 -0.05,0.35 -0.0184,0.352539 -0.05,0.7 -0.0981,1.04707 -0.15,2.05 -0.0131,0.291797 0.1,0.5 -0.1334,0.259766 -0.15,0.55 -0.0973,1.985156 0,3.8 -0.21543,0.170508 -0.35,0.4 -0.26094,0.557812 -0.55,1.05 0.002,0.05039 -0.05,0.1 -0.12285,0.279492 -0.1,0.55 -0.17656,0.148633 -0.3,0.35 -0.15,0.25 -0.3,0.5 -0.0123,0.02637 -0.05,0.05 -3.05879,5.73457 -6.45,10.6 -1.1207,1.648633 -2.3,3.15 v 0 q -1.1625,1.536914 -2.35,2.95 -0.276172,0.353711 -0.25,0.75 0.03242,0.444531 0.35,0.7 v 0.05 q -2.841211,2.533398 -5.55,5.75 -3.232031,0.858203 -8.65,2.8 -1.023633,0.410156 -2.15,0.8 -0.218555,0.118555 -0.4,0.3 -0.222461,-0.03691 -0.5,0.05 -0.762695,0.261523 -1.55,0.55 -1.041016,0.455469 -2.2,0.85 -0.04609,0.04531 -0.1,0.05 l -1.55,0.35 Q 74.272461,67.096484 70.25,67.4 H 70.2 q -1.11582,0.0416 -5.2,0.55 -0.870312,0.118359 -1.9,0.25 -0.256445,0.03633 -0.5,0.2 -0.06563,-0.04902 -0.2,-0.1 -1.111719,-0.233594 -2.2,-0.25 -0.07988,-0.01152 -0.15,0 H 60 q -4.499805,-0.747266 -6.8,-1.1 v 0 q -0.949414,-0.133984 -1.9,-0.2 -2.156055,-0.260352 -4,-0.3 -0.552539,-0.0088 -1.1,0 -2.046289,-1.002344 -4.25,-2.2 Q 41.695898,64.14082 41.4,64.15 41.36992,64.07168 41.3,64 41.085937,63.795703 40.85,63.65 37.380859,60.721289 36.1,59.75 v 0 Q 35.962109,59.62832 35.8,59.5 33.824805,58.06543 32,57.1 q -0.646875,-0.305859 -1.3,-0.6 -0.373828,-0.140234 -0.8,0 v 0 Q 29.277539,55.943555 28.65,55.3 28.198828,54.754102 27.85,54.25 27.79141,54.19629 27.7,54.1 27.392383,53.792383 27.15,53.55 26.600391,52.662695 26.1,51.8 q -0.225195,-0.34668 -0.65,-0.5 0.0502,-0.378711 -0.2,-0.75 -1.607031,-2.443555 -2.85,-4 -0.166211,-0.249219 -0.35,-0.5 -0.04414,-0.0293 -0.1,-0.1 -0.04687,-0.06484 -0.1,-0.15 L 21.8,45.75 q -0.131836,-0.2125 -0.25,-0.45 -0.148438,-0.279297 -0.4,-0.45 -1.50332,-2.403906 -2.95,-4.2 -0.236719,-0.327148 -0.65,-0.4 -0.412695,-0.08477 -0.8,0.1 -0.204102,0.162891 -0.35,0.35 -0.09687,-0.14043 -0.2,-0.3 -0.262891,-0.396094 -0.75,-0.5 -0.04961,-0.01699 -0.15,-0.05 0.03066,-0.241016 -0.1,-0.5 -0.01738,-0.03496 -0.05,-0.1 -0.02363,-0.05918 -0.1,-0.15 -0.707422,-1.464844 -0.8,-1.65 H 14.2 Q 14.117383,37.313086 14,37.15 13.502734,36.078711 13.05,35 V 34.95 Q 11.699219,31.673437 10.8,29.4 10.78359,29.38496 10.75,29.35 10.7535,29.275 10.7,29.2 10.550391,28.549023 10.4,27.9 L 10.35,27.85 Q 10.176953,27.080273 9.7,26.45 9.8144531,26.197656 9.75,25.9 L 9.65,25.25 Q 9.574219,24.300195 9.5,23.35 9.50527,23.005664 9.3,22.75 9.4363281,22.497852 9.4,22.2 9.315039,19.675586 9.35,16.8 9.5847656,16.72695 9.8,16.6 11.10332,16.015039 11.6,14.65 12.085742,13.34082 11.45,12.05 10.904492,10.834961 9.7,10.3 9.7380859,9.8787109 9.75,9.4 9.8146484,9.0583984 9.85,8.7 9.8587891,8.5271484 9.85,8.35 9.9025391,8.0673828 9.8,7.8 9.828125,7.65625 9.8,7.5 10.025,7.3277344 10.1,7.05 10.375,6.3261719 10.6,5.5 l 0.05,-0.05 q 0.03691,-0.1109375 0.05,-0.25 0.462891,-1.6730469 0.8,-3.75 1.761719,-4.1539063 2.2,-5.7 2.083789,-3.2785156 3.55,-5.8 0.313477,0.1720703 0.65,0.1 m 3.75,-7.2 q -0.06269,0.06269 -0.15,0.1 0.04004,-0.01934 0.05,-0.1 0.05156,0.02012 0.1,0 m 1,-1 q 0.05371,-0.05098 0.1,-0.1 0.06387,-0.01934 0.1,-0.05 -0.09121,0.06309 -0.2,0.15 m -125.2,-4.2 q 0.17207,-0.05996 0.45,-0.25 0.31563,-0.149414 0.8,-0.45 -0.42227,0.355469 -0.8,0.65 -0.57676,0.443555 -1.05,0.8 -0.0393,0.02324 -0.1,0.05 -0.0139,0.02344 -0.05,0.05 l 0.75,-0.85 m -6.75,7.45 q 0.2875,0.01035 0.5,-0.15 0.37188,-0.177539 0.7,-0.4 -0.82168,1.206641 -1.7,2.6 -0.34531,0.628516 -0.75,1.3 v 0 q -1.28633,2.3960937 -3.3,6.45 0.0701,-0.4160156 0.1,-0.85 0.0613,-0.2912109 0.1,-0.55 0.72812,-1.4822266 2.1,-4.15 v 0 q 0.84121,-1.583398 1.45,-2.75 0.48672,-0.872461 0.8,-1.5 M -60,-41 q 0.02832,-0.01406 0,-0.05 0.01836,-0.07051 0,-0.15 0.741016,0.201172 1.45,0.45 0.129102,0.120117 0.2,0.2 -0.748633,-0.202539 -1.35,-0.4 -0.124805,-0.02266 -0.3,-0.05 m -6.8,-2.55 q 0.325977,0.025 0.55,0.1 l -0.2,0.05 h -0.05 l -0.3,-0.15 m 5.75,1.65 -0.05,-0.1 q 0.04414,0.06523 0.05,0.1 v 0 m 0.05,0.1 v 0 l 0.05,0.05 H -61 v -0.05 m 0.05,0.1 h 0.05 q 0.133398,0.208594 0.3,0.3 -0.09883,0.08477 -0.25,0.1 l -0.1,-0.4 M -14.7,4.75 Q -14.805078,4.4898438 -14.95,4.2 l 0.85,-0.25 q 0.02363,0.1398437 0.05,0.25 -0.382031,0.1529297 -0.6,0.5 -0.01543,0.024414 -0.05,0.05 m 2.8,-0.85 q 0.01152,0.066992 0,0.1 0.05039,0.1394531 0.05,0.2 0.01152,0.060156 -0.15,-0.3 0.06231,0.00898 0.1,0 m -97.6,37.15 q 0.0715,0.01387 0.1,0 -0.0187,0.02344 -0.05,0.05 l -0.05,-0.05 M 110.25,46 q -0.008,0.179687 -0.05,0.35 0.0195,-0.131445 0.05,-0.3 0.009,-0.0062 0,-0.05 m -203.6,-71.7 q 2.066992,-1.491406 5,-3.7 5.442578,-1.491797 8.65,-3.1 v 0 q 2.714844,-1.423828 4.65,-3.25 1.24375,-1.178516 2.15,-2.55 1.718945,-0.08106 4.65,-0.15 h 0.05 q 3.064844,-0.126172 5.1,-0.65 0.39375,0.144922 0.95,0.3 0.322656,0.148047 0.7,0.25 0.310937,0.125195 0.6,0.05 0.202148,0.221875 0.5,0.3 1.37832,0.464063 3.25,1.15 v 0 q 3.802734,1.334766 6.15,1.85 0.125586,0.0252 0.25,0 0.0625,0.02988 0.1,0.05 0.12168,0.02422 0.2,0 0.855273,0.975977 2.45,2.4 l 0.05,0.05 q 0.302734,0.251953 0.7,0.2 0.432227,-0.0035 0.7,-0.35 0.303711,-0.285352 0.25,-0.7 -0.0043,-0.431836 -0.35,-0.75 0.355469,0.149609 0.7,0.25 0.195508,0.166602 0.4,0.2 0.10957,0.06973 0.2,0.1 0.499023,0.369336 1.05,0.75 v 0.05 q 2.153711,1.416406 3.65,2.3 0.869141,0.515234 1.5,0.85 3.057617,1.626563 5.7,2.2 0.3,0.05762 0.55,-0.05 0.543555,0.313281 1.05,0.6 0.298242,0.14375 0.55,0.1 0.189258,0.293359 0.45,0.45 0.85,0.438086 1.65,0.9 0.4,0.239258 0.8,0.15 0.14375,-0.02344 0.25,-0.1 0.05156,0.0043 0.1,-0.05 2.1125,2.612695 4.7,5.95 0.270508,0.330078 0.7,0.4 0.186328,0.03438 0.35,0 0.14707,0.369141 0.25,0.75 0.209375,2.649609 1.55,6.25 v -0.05 q 0.391797,1.184961 2.4,5.5 v 0.05 q 0.0418,0.2462891 0.05,0.5 0.07383,0.3507813 0.1,0.7 0.560547,3.3695312 1.65,6.6 0.161719,0.3761719 0.3,0.75 L -16,1.75 q 0.0625,0.1125 0.1,0.2 0.0125,0.0625 0,0.1 0.172266,0.5841797 0.3,1.05 0.161914,0.4734375 0.55,0.7 0.03145,0.086328 0.05,0.15 0.112891,0.5943359 0.2,1.05 -0.06074,0.2759766 0,0.55 0.275586,1.2488281 0.4,1.75 0.07188,0.3318359 0.1,0.4 0.04199,0.1275391 0.05,0.15 v 0 q 0.370117,0.8996094 0.8,1 0.02793,0.2869141 0.05,0.55 0.160156,1.52793 0.25,3.1 0.06484,0.547266 0.1,1.1 0.0125,0.160156 0.05,0.3 0.104102,0.226367 0.3,0.4 0.08809,0.07754 0.15,0.1 -0.07637,0.153711 -0.2,0.25 -0.302344,0.400781 -0.5,0.7 0.01641,0.02871 0,0.05 -0.946289,1.241016 -1.55,2.75 -0.153711,0.489063 -0.2,0.95 -0.07988,0.855078 0.3,1.7 0.533789,1.183398 1.65,1.7 -0.09766,0.727148 -0.15,1.4 -0.115039,1.089844 -0.15,2.15 7.81e-4,0.288672 0,0.55 v 0.15 q -0.487891,1.424609 -1.05,2.8 -0.08047,0.254687 -0.05,0.5 -0.173633,0.147461 -0.3,0.35 -0.620313,1.493359 -1.4,2.95 -1.916211,3.763281 -4.6,7.45 -0.114844,0.2 -0.15,0.4 -0.198828,0.123828 -0.35,0.3 -1.138086,1.512305 -2.4,3 v -0.05 q -2.034375,2.463086 -4.45,4.9 -0.828906,0.838086 -1.7,1.65 v 0 q -1.388281,1.287695 -2.95,2.6 -0.272266,0.284766 -0.3,0.65 -0.03047,0.42207 0.2,0.7 0.283984,0.322461 0.65,0.35 0.421875,0.02969 0.7,-0.25 1.588086,-1.337695 3,-2.65 v -0.05 q 0.200977,-0.166602 0.4,-0.35 2.991797,-2.888672 5.5,-5.8 -0.645703,1.460547 -1.05,2.9 0.0084,0.06328 0,0.1 -1.7875,1.915625 -3.7,3.55 l -0.1,0.05 q -0.07383,0.09688 -0.15,0.15 -0.265234,0.248047 -0.5,0.4 -0.0252,0.05527 -0.05,0.05 v 0 q -2.42168,2.028711 -4.6,3.35 -0.328125,0.221289 -0.45,0.6 -0.02461,0.23457 0,0.4 -0.03691,0.06543 -0.1,0.1 -1.631836,1.075 -3.95,2.6 -0.176758,0.111328 -0.35,0.2 -0.281836,0.209766 -0.4,0.5 -0.207422,0.05664 -0.4,0.2 h -0.05 l -0.55,0.2 -0.05,0.05 q -0.01191,0.01328 -0.05,0 -1.947266,0.857617 -6.8,2.75 -4.905078,-0.848633 -10.95,-0.3 v 0 q -3.462109,0.306445 -8.8,1.25 -0.491797,0.105859 -1,0.2 -0.480273,0.08164 -1,0.15 -0.299023,0.08398 -0.55,0.3 -0.277734,-0.05 -0.6,-0.15 v 0 q -3.202734,-1.208008 -5.35,-1.9 -0.07539,-0.02617 -0.15,-0.05 -0.30625,-0.09824 -0.6,0 -0.130273,-0.109766 -0.3,-0.2 l -0.55,-0.2 q -0.07305,-0.03828 -0.15,-0.1 -1.22832,-0.515039 -2.9,-1.35 -0.365039,-0.179297 -0.75,-0.4 -1.093945,-0.515625 -2.35,-1.15 -1.743945,-0.883984 -3.8,-1.95 -0.336328,-0.175195 -0.7,-0.1 -0.366602,0.125586 -0.6,0.45 -0.102539,0.184375 -0.15,0.35 -0.20625,-0.128516 -0.45,-0.3 -0.209375,-0.176953 -0.5,-0.2 -0.07832,-0.216406 -0.3,-0.4 -2.751953,-2.21543 -6.05,-5.2 -0.145703,-0.153711 -0.35,-0.25 -0.15293,-0.0082 -0.35,0 0.0041,-0.02441 -0.05,-0.05 -0.0076,-0.04805 -0.05,-0.1 0.17793,-0.222266 0.2,-0.55 0.02988,-0.367383 -0.25,-0.7 -0.932422,-1.149023 -2.1,-2.8 -1.455859,-2.173828 -3.25,-5.2 h -0.05 q -0.24805,-0.4125 -0.5,-0.85 0.0121,0.0014 0,-0.05 -2.82813,-4.63418 -4.5,-6.8 -0.0699,-0.102734 -0.2,-0.2 -0.0107,-0.05332 -0.05,-0.1 -0.0537,-0.07813 -0.1,-0.15 0.0104,0.03848 0,0.05 0.043,0.06894 0.05,0.1 -0.18066,-0.119531 -0.45,-0.15 h -0.05 q 0.13574,-0.155859 0.15,-0.35 0.10586,-0.403711 -0.15,-0.75 -0.008,-0.07988 -0.05,-0.25 -0.0127,-1.95e-4 -0.05,-0.05 -0.31348,-0.808789 -0.7,-1.6 -1.1082,-2.561719 -2.4,-4.7 -0.15723,-0.226172 -0.4,-0.35 -0.0316,-0.234961 -0.2,-0.45 -0.0262,-0.08984 -0.05,-0.15 -0.14531,-0.272656 -0.3,-0.4 -0.28926,-0.296484 -0.7,-0.3 -0.41074,0.0035 -0.7,0.3 -0.14512,0.141602 -0.25,0.3 -0.14707,-0.4 -0.3,-0.8 V 25.7 q -0.003,-0.01973 -0.05,-0.1 0.016,-0.0625 0,-0.15 -0.0285,-0.09922 -0.1,-0.2 0.0141,-0.02305 0,-0.05 -0.009,-0.05 -0.05,-0.1 -0.0123,-0.131641 -0.1,-0.25 -0.0973,-1.105664 -0.25,-2.05 -0.32832,-2.043555 -0.75,-3.5 0.0236,-0.06758 0,-0.2 v 0 q -0.2082,-1.006445 -0.4,-1.95 0.23379,-0.08594 0.4,-0.25 0.32715,-0.331836 0.3,-0.8 0.0293,-0.40293 -0.05,-0.75 -0.0557,-0.186914 -0.2,-0.35 0.076,-0.118555 0.1,-0.25 0.22305,-1.152539 0.2,-2.25 v -0.05 q -0.0242,-1.075781 -0.15,-2.1 V 10.3 q -0.17871,-1.8177734 -0.55,-3.55 -0.0717,-2.2804688 0,-4.5 0.0348,-0.2568359 -0.05,-0.5 0.0613,-0.029688 0.1,-0.1 0.26543,-0.2765625 0.55,-0.6 0.51816,-0.61523437 1.15,-1.4 0.10078,-0.0863281 0.15,-0.2 0.27363,-0.25878906 0.25,-0.65 -0.0357,-0.3394531 -0.35,-0.6 -0.14023,-0.1205078 -0.35,-0.2 2.29258,-2.9824219 4.95,-7.7 v -0.05 q 0.7748,-1.311914 1.45,-2.5 0.19746,-0.305859 0.35,-0.6 2.80723,-4.935937 3.9,-6.55 h 0.05 q 0.0846,-0.140234 0.1,-0.3 h 0.05 q 0.0387,-0.02207 0.05,-0.05 l 0.05,-0.05 q 2.988672,-1.971094 4.25,-2.8 v -0.05 q 0.812891,-0.507227 4.25,-3.05 m -12.8,60.8 q -0.0309,-0.102148 -0.1,-0.2 0.0832,0.123047 0.1,0.25 0.0441,0.06035 0.05,0.1 l 0.05,0.05 q -0.0434,-0.102344 -0.1,-0.2 z"
                 id="path29" />
            </g>
          </g>
        </g>
      </g>
      <g
         id="Mouth"
         transform="matrix(2.8673401,0,0,2.8673401,767.05,365.95)">
        <g
           id="g52">
          <g
             id="g46">
            <g
               id="g44">
              <path
                 fill="#ff44fb"
                 stroke="none"
                 d="m 87.5,82.7 q -0.05234,-0.248047 -0.3,-0.45 -2.058984,-1.674609 -6.25,-1.7 H 80.9 q -4.281055,0.271289 -6.2,0.15 H 74.65 Q 59.825391,80.171094 44.8,81.55 v 0 q -15.666211,1.533008 -29.65,4.95 -0.580664,0.15625 -17.25,5.15 -10.239258,3.127734 -17.3,3.65 -19.901172,0.975 -29.85,1.5 -17.904297,1.030273 -29.95,4 -0.07871,0.0262 -0.2,0.05 -1.504297,0.81387 -3.9,1.9 -2.939453,1.31406 -3.75,1.65 -3.427539,-0.94766 -6.1,0.15 -3.236133,1.38242 -6.15,6.05 h 0.05 q -1.47754,2.33848 -1.7,5.95 -0.16191,3.10508 0.65,6 2.566406,8.81719 10.9,14.05 v 0 q 6.853125,4.31895 16.95,5.9 14.343945,2.30234 23.75,3.1 13.107227,1.10742 24,0.1 12.018555,-1.05 35.75,-2.15 v 0 q 21.129883,-1.5043 35.6,-5.65 15.166797,-4.34434 17.1,-5.1 v -0.05 q 8.663086,-3.45137 14.95,-10.25 3.228906,-3.46094 6.45,-10.2 3.335352,-6.80996 4,-11.55 0.71543,-5.047266 0.25,-9.3 -0.564258,-5.117578 -2.75,-6.7 0.61582,-0.643555 0.85,-1.45 0.113477,-0.287891 0,-0.6 M 66.7,94.8 q 4.466016,-1.125781 7.05,-1.9 -0.861914,2.312109 -1.5,6 v 0 q -0.754688,4.80937 -2.85,7.65 -4.487695,6.18906 -13.85,9.7 -0.03789,0.0361 -0.1,0.05 l -3.05,0.9 q -1.263672,0.3875 -2.4,0.75 l 0.05,-0.05 -3.8,1.1 q -0.364063,0.1373 -0.7,0.25 l 0.05,-0.05 q -0.175,0.075 -0.4,0.1 v 0.05 q -1.618359,0.48652 -2.95,0.9 -0.03769,0.0377 -0.1,0.05 -0.473437,0.0996 -0.95,0.25 h 0.05 q -0.473633,0.13125 -0.9,0.25 v 0 q -0.03809,0.0373 -0.1,0.05 -0.789844,0.22891 -1.45,0.45 -0.233398,0.0363 -0.45,0.1 l -5.55,1.9 q -3.345117,1.08496 -5.7,1.65 -8.64043,2.36035 -18.35,3.9 -0.037891,0.005 -0.1,0 -0.4046875,0.075 -0.9,0.15 h 0.1 q -0.4855469,0.0602 -1.05,0.15 h 0.05 q -0.019141,0.006 -0.1,0 -12.4779297,1.79922 -26.7,2.3 -6.674609,0.1998 -12.4,0.3 -0.03672,0 -0.1,0 -0.899219,0.003 -1.8,0.05 -0.04668,0 -0.1,0 -0.99043,0 -2,0 l -12.7,-0.25 q -0.125,0 -0.25,0 -0.375,-0.0563 -0.75,-0.05 -0.15,0 -0.3,0 -1.137891,-0.10039 -2.25,-0.15 -0.372461,-0.0217 -0.65,0.2 -0.249805,0.25137 -0.3,0.55 l -9.55,-1.1 -1.5,-0.15 -0.55,-0.1 -0.25,-0.05 q -0.707812,-0.11016 -1.45,-0.25 l -0.2,-0.05 -0.95,-0.2 q -5.876563,-1.20391 -10.25,-3.15 0.113672,-0.2668 0,-0.6 -0.13418,-0.32129 -0.5,-0.5 -5.695703,-2.56094 -5.65,-6.1 0.254883,-3.02559 4.35,-6 1.807227,0.0113 4.8,-0.2 4.374805,-0.22148 8.05,-0.4 0.07285,0.0272 0.1,0 h 0.05 q 0.85,-0.0252 1.65,-0.1 0.06016,0.0219 0.1,0 9.691992,-0.47676 13.9,-0.8 1.999023,-0.12383 5.95,-0.15 4.049609,0.0264 6,-0.15 2.233398,-0.12246 4.5,-0.4 0.09336,0.031 0.15,0 0.5,-0.025 1,-0.1 0.394531,-0.0187 0.8,-0.05 0.04453,-0.0187 0.1,-0.05 13.083594,-1.28496 29.15,-4.35 1.9480469,-0.3377 5.9,-0.8 0.9283203,-0.0822 1.75,-0.2 1.0224609,-0.11016 1.85,-0.25 1.43125,-0.20254 2.35,-0.4 2.201367,-0.39473 5.9,-1.45 4.078711,-1.19688 5.7,-1.6 6.208594,-1.47871 18.6,-3 0.05703,-0.0166 0.1,-0.05 0.0625,0.01406 0.1,0 0.40293,-0.08457 0.85,-0.15 0.442969,-0.01934 0.85,-0.1 0.09297,0.03066 0.15,0 v 0 Q 41.712695,98.925391 43.1,98.75 58.632031,96.914258 66.7,94.8 M -68,130.2 -78.25,127.05 q 4.373437,1.94609 10.25,3.15 z"
                 id="path38" />
              <path
                 fill="#07271f"
                 stroke="none"
                 d="m -67.1,113.25 q -0.02715,0.0272 -0.1,0 0.145703,3.16816 0.1,8.7 -0.04863,5.55469 0.05,8.45 l 0.2,0.05 q 0.742188,0.13984 1.45,0.25 l 0.25,0.05 q 0.0037,-0.0842 0,-0.2 -0.09961,-2.86934 -0.05,-8.6 0.04707,-5.60645 -0.1,-8.8 -0.03984,0.0219 -0.1,0 -0.8,0.0748 -1.65,0.1 h -0.05 m 32,7.65 v 0.05 q 0.0045,6.13066 0.75,10.85 0.05332,0 0.1,0 0.900781,-0.0469 1.8,-0.05 -0.753125,-4.66973 -0.75,-10.8 0.134961,-5.61016 0.2,-9.45 -0.405469,0.0312 -0.8,0.05 -0.5,0.075 -1,0.1 -0.05664,0.031 -0.15,0 -0.01875,3.81152 -0.15,9.25 M 5.75,105.85 q -0.8275391,0.13984 -1.85,0.25 v 0.05 q 0.55,8.19492 1,12.15 v 0 q 0.7341797,6.06406 1.85,10.85 0.080859,0.006 0.1,0 H 6.8 Q 7.3644531,129.0602 7.85,129 h -0.1 q 0.4953125,-0.075 0.9,-0.15 Q 7.5298828,124.10684 6.8,118.1 6.35,114.15469 5.8,106 5.79395,105.9397 5.75,105.85 m 35.5,14.7 H 41.2 q 0.476563,-0.15039 0.95,-0.25 0.06231,-0.0123 0.1,-0.05 -1.821875,-9.07852 -2.05,-21.15 -0.407031,0.08066 -0.85,0.1 -0.44707,0.06543 -0.85,0.15 -0.0375,0.01406 -0.1,0 -0.04297,0.0334 -0.1,0.05 0.205664,12.19492 2.05,21.4 0.426367,-0.11875 0.9,-0.25 z"
                 id="path40" />
              <path
                 fill="#ffffff"
                 stroke="none"
                 d="m -75.25,113.65 q -2.992773,0.21133 -4.8,0.2 -4.095117,2.97441 -4.35,6 -0.0457,3.53906 5.65,6.1 0.36582,0.17871 0.5,0.5 0.113672,0.3332 0,0.6 l 10.25,3.15 0.95,0.2 q -0.09863,-2.89531 -0.05,-8.45 0.0457,-5.53184 -0.1,-8.7 -3.675195,0.17852 -8.05,0.4 m 40.15,7.3 v -0.05 q 0.13125,-5.43848 0.15,-9.25 -2.266602,0.27754 -4.5,0.4 -1.950391,0.17637 -6,0.15 -3.950977,0.0262 -5.95,0.15 -4.208008,0.32324 -13.9,0.8 0.14707,3.19355 0.1,8.8 -0.04961,5.73066 0.05,8.6 0.0037,0.11582 0,0.2 l 2.05,0.25 9.55,1.1 q 0.05019,-0.29863 0.3,-0.55 0.277539,-0.22168 0.65,-0.2 1.112109,0.0496 2.25,0.15 0.15,0 0.3,0 0.375,-0.006 0.75,0.05 0.125,0 0.25,0 l 12.7,0.25 q 1.00957,0 2,0 -0.745508,-4.71934 -0.75,-10.85 m 39,-14.85 q -0.8216797,0.11777 -1.75,0.2 -3.9519531,0.4623 -5.9,0.8 -16.066406,3.06504 -29.15,4.35 -0.05547,0.0312 -0.1,0.05 -0.06504,3.83984 -0.2,9.45 -0.0031,6.13027 0.75,10.8 0.06328,0 0.1,0 5.725391,-0.1002 12.4,-0.3 14.2220703,-0.50078 26.7,-2.3 Q 5.6341797,124.36406 4.9,118.3 v 0 q -0.45,-3.95508 -1,-12.15 v -0.05 m 28.9,17.2 5.55,-1.9 q 0.216602,-0.0637 0.45,-0.1 0.660156,-0.22109 1.45,-0.45 0.06191,-0.0127 0.1,-0.05 v 0 q -1.844336,-9.20508 -2.05,-21.4 -12.391406,1.52129 -18.6,3 -1.621289,0.40312 -5.7,1.6 -3.698633,1.05527 -5.9,1.45 -0.91875,0.19746 -2.35,0.4 0.043945,0.0897 0.05,0.15 0.55,8.15469 1,12.1 0.7298828,6.00684 1.85,10.75 0.062109,0.005 0.1,0 9.70957,-1.53965 18.35,-3.9 2.354883,-0.56504 5.7,-1.65 M 73.75,92.9 q -2.583984,0.774219 -7.05,1.9 -8.067969,2.114258 -23.6,3.95 -1.387305,0.175391 -2.75,0.35 v 0 q -0.05703,0.03066 -0.15,0 0.228125,12.07148 2.05,21.15 1.331641,-0.41348 2.95,-0.9 v -0.05 q 0.225,-0.025 0.4,-0.1 l -0.05,0.05 q 0.335937,-0.1127 0.7,-0.25 l 3.8,-1.1 -0.05,0.05 q 1.136328,-0.3625 2.4,-0.75 l 3.05,-0.9 q 0.06211,-0.0139 0.1,-0.05 9.362305,-3.51094 13.85,-9.7 2.095312,-2.84063 2.85,-7.65 v 0 q 0.638086,-3.687891 1.5,-6 z"
                 id="path42" />
            </g>
          </g>
          <g
             id="g50">
            <path
               stroke="#ff44fb"
               stroke-width="1.8"
               stroke-linejoin="round"
               stroke-linecap="round"
               fill="none"
               d="m -64.6,130.85 -0.55,-0.1 -0.225,-0.025 q -0.732812,-0.13516 -1.45,-0.275 l -0.225,-0.05 -0.925,-0.175 q -5.901563,-1.22891 -10.275,-3.15"
               id="path48" />
          </g>
        </g>
      </g>
    </g>
  </g>
</svg>
