<svg width="89" height="16" viewBox="0 0 89 16" fill="none" xmlns="http://www.w3.org/2000/svg">
<path fill-rule="evenodd" clip-rule="evenodd" d="M67.3063 0C69.4616 0 71.4135 0.895842 72.826 2.34336C74.2385 3.7909 75.1127 5.79124 75.1127 8C75.1127 10.2088 74.2385 12.2091 72.826 13.6566C71.4135 15.1042 69.4616 16 67.3063 16C65.151 16 63.199 15.1042 61.7865 13.6566C60.374 12.2091 59.4999 10.2088 59.4999 8C59.4999 5.79124 60.374 3.7909 61.7865 2.34336C63.199 0.895842 65.151 0 67.3063 0ZM44.4436 13.7268H38.8578L38.2227 15.7381H35.2055L40.0927 0.261741H40.3361H42.9825H43.2081L48.0959 15.7381H45.0788L44.4436 13.7268ZM39.7896 10.776H43.5116L41.6505 4.88313L39.7896 10.776ZM58.683 3.21259H54.7535V15.7381H51.8741V3.21259H47.9447V0.261741H58.683V3.21259ZM30.4214 9.68882H28.3704V15.7381H25.491V3.21259V0.762503V0.261741H30.4214V0.261528C31.6874 0.261528 32.8358 0.789504 33.6682 1.6422L33.6738 1.64787C34.5059 2.50101 35.021 3.67782 35.021 4.97528C35.021 6.2699 34.5059 7.44672 33.6736 8.30248L33.6708 8.30531L33.668 8.30813C32.833 9.16106 31.6847 9.68904 30.4214 9.68904V9.68882ZM28.3704 6.738H30.4216L30.4218 6.73821C30.9004 6.73811 31.3305 6.54295 31.6379 6.22767L31.6434 6.22201C31.951 5.90684 32.1416 5.46599 32.1416 4.97528C32.1416 4.48589 31.9501 4.04394 31.6409 3.72551C31.3302 3.4087 30.8992 3.21249 30.4217 3.21238L30.4216 3.21259H28.3704V6.738ZM19.263 13.7268H13.7755L13.1403 15.7381H10.1232L15.0104 0.261741H15.1556H17.9002H18.0275L22.9153 15.7381H19.8983L19.263 13.7268ZM14.7073 10.776H18.331L16.519 5.03867L14.7073 10.776ZM4.93037 9.68882H2.87943V15.7381H0V3.21259V0.762503V0.261741H4.93037V0.261528C6.19647 0.261528 7.34476 0.789504 8.17728 1.6422L8.18278 1.64787C9.01485 2.50101 9.53005 3.67782 9.53005 4.97528C9.53005 6.2699 9.01485 7.44672 8.18257 8.30248L8.17981 8.30531L8.17705 8.30813C7.34199 9.16106 6.1937 9.68904 4.93037 9.68904V9.68882ZM2.87943 6.738H4.93058L4.93079 6.73821C5.40946 6.73811 5.83948 6.54295 6.14693 6.22767L6.15244 6.22201C6.46 5.90684 6.65064 5.46599 6.65064 4.97528C6.65064 4.48589 6.45916 4.04394 6.1499 3.72551C5.83925 3.4087 5.40816 3.21249 4.93072 3.21238L4.93058 3.21259H2.87943V6.738ZM80.8089 0.261741L86.1206 10.2978V0.261741H89V15.7381H86.1206L80.8088 5.70203V15.7381H77.9294V0.261741H77.9294H80.8088H80.8089ZM67.3063 13.0492C68.6669 13.0492 69.899 12.484 70.7904 11.5705C71.6818 10.657 72.2333 9.39441 72.2333 8C72.2333 6.60559 71.6818 5.34298 70.7904 4.42946C69.899 3.51604 68.6669 2.95082 67.3063 2.95082C65.9456 2.95082 64.7136 3.51604 63.8222 4.42946C62.9309 5.34298 62.3793 6.60559 62.3793 8C62.3793 9.39441 62.9309 10.657 63.8222 11.5705C64.7136 12.484 65.9456 13.0492 67.3063 13.0492Z" fill="black"/>
</svg>
