<?xml version="1.0" encoding="utf-8"?>
<!-- Generator: Adobe Illustrator 27.3.0, SVG Export Plug-In . SVG Version: 6.00 Build 0)  -->
<svg version="1.1" id="Layer_1" xmlns="http://www.w3.org/2000/svg" xmlns:xlink="http://www.w3.org/1999/xlink" x="0px" y="0px"
	 width="480px" height="460px" viewBox="0 0 480 460" style="enable-background:new 0 0 480 460;" xml:space="preserve">
<style type="text/css">
	.st0{fill:none;}
	.st1{fill:#FA9EB1;}
</style>
<g>
	<rect x="90" y="-12" class="st0" width="300" height="300"/>
	<g>
		<path class="st1" d="M343.6,191.8c0-55.4-54.9-71.4-81.3-79.1c-2.4-0.7-4.6-1.3-6.6-2l-3.4-1c-36.4-11.2-43.3-19.4-42.7-28.9
			c0.3-5.4,2-11,11.8-15.8c8.7-4.2,21.2-6.2,33.4-5.4c20.8,1.3,40,14.7,48.2,20.4c12.3,8.6,29.2,5.5,37.8-6.8
			c8.6-12.3,5.5-29.2-6.8-37.8c-11.9-8.3-39.8-27.7-75.7-29.9c-21.5-1.4-43.5,2.5-60.5,10.7c-25.6,12.4-40.6,34.1-42.4,61.2
			c-1.2,18.1,3.7,43.8,33.3,63.7c16.2,10.9,35.2,16.7,47.8,20.6l3.2,1c2.3,0.7,4.8,1.5,7.5,2.2c35.3,10.3,42.2,17.7,42.2,27
			c0,5.5-1.3,11.4-11,17c-8.3,4.8-20.9,7.8-32.8,7.8c-15.3,0-38.5-2.5-56.3-18.3c-11.6-10.3-29.7-27.7-29.7-27.7l-6.6-6.2
			c-2.3-2.1-5.6-2-7.7,0.3c-2.1,2.3-2,5.6,0.3,7.7l6.7,6.2c2.3,2.1,2.4,5.4,0.3,7.7c-2.1,2.3-5.4,2.4-7.7,0.3l-18-16.7
			c-2.3-2.1-5.6-2-7.7,0.3s-2,5.6,0.3,7.7l13.4,12.5c2.3,2.1,2.4,5.4,0.3,7.7c-2.1,2.3-5.4,2.4-7.7,0.3l-4.8-4.5
			c-2.3-2.1-5.6-2-7.7,0.3s-2,5.6,0.3,7.7l6.6,6.3c0,0,10.5,10,33.2,30.8c25.2,23.2,64.4,32.2,92.4,32.2
			C294.3,270.9,343.6,243.7,343.6,191.8z M154.2,217.5c-2,2.2-5.4,2.4-7.4,0.5l-8.4-7.8c-2-1.9-2.1-5.2,0-7.4c2-2.2,5.4-2.4,7.4-0.5
			l8.4,7.8C156.2,211.9,156.2,215.3,154.2,217.5z"/>
		<path class="st1" d="M106.9,158.8c-2,2.2-1.9,5.6,0.3,7.7c2.2,2,5.6,1.9,7.7-0.3c2-2.2,1.9-5.6-0.3-7.7S108.9,156.6,106.9,158.8z"
			/>
		<path class="st1" d="M101.5,183.3L101.5,183.3c-2.1,2.2-1.9,5.7,0.3,7.7c2.2,2,5.6,1.9,7.7-0.3c2-2.2,1.9-5.6-0.3-7.7
			C107,181,103.6,181.1,101.5,183.3z"/>
	</g>
</g>
<g>
	<rect x="19.7" y="321" class="st0" width="443.4" height="81.9"/>
	<g>
		<path class="st1" d="M436.8,390.2c-1.2,0-2.2-1-2.2-2.2v-6c0-4.8,2.8-7.7,7-7.7h0.1c4.7,0,7.1,3.6,7.1,8.1v3.4h4
			c1.2,0,2.2,1,2.2,2.2s-1,2.2-2.2,2.2H436.8z M444.7,382.3c0-2.2-1.3-3.5-3-3.5h-0.1c-2,0-3,1.4-3,3.6v3.4h6.1V382.3z"/>
		<g>
			<path class="st1" d="M78.9,378.1v-19.9h-0.4c-2.8,0-5.1-2.3-5.1-5.1c0-2.8,2.3-5.1,5.1-5.1h0.4v-5.3c0-3.3,2.7-6,6-6s6,2.7,6,6
				v5.3h5.3c2.8,0,5.1,2.3,5.1,5.1c0,2.8-2.3,5.1-5.1,5.1h-5.3v18c0,2.7,1.2,4.1,3.8,4.1c0.4,0,1.2-0.1,1.4-0.1
				c2.7,0,4.9,2.2,4.9,4.9c0,2.1-1.4,3.8-3.1,4.5c-2.2,0.9-4.2,1.2-6.8,1.2C83.8,390.8,78.9,387.9,78.9,378.1z"/>
		</g>
		<path class="st1" d="M101.6,369.3v-0.2c0-12.1,9.7-21.9,22.8-21.9c13,0,22.7,9.7,22.7,21.7v0.2c0,12.1-9.7,21.9-22.8,21.9
			C111.2,391,101.6,381.4,101.6,369.3z M135.2,369.3v-0.2c0-6.2-4.5-11.6-11.1-11.6c-6.8,0-10.9,5.3-10.9,11.5v0.2
			c0,6.2,4.5,11.6,11.1,11.6C131.2,380.7,135.2,375.5,135.2,369.3z"/>
		<g>
			<path class="st1" d="M151.1,353.6c0-3.3,2.7-6,6-6s6,2.7,6,6v1.9c1.7-4.1,4.6-7.9,8.1-7.9c3.7,0,5.8,2.4,5.8,5.8
				c0,3.1-2,5-4.5,5.6c-6,1.4-9.4,6-9.4,14.5v11.1c0,3.3-2.7,6-6,6s-6-2.7-6-6L151.1,353.6L151.1,353.6z"/>
		</g>
		<g>
			<path class="st1" d="M182.5,401.8c-1.7-0.6-3.8-2-3.8-4.9s2.3-4.9,4.7-4.9c0.9,0,1.5,0.2,2,0.3c1,0.3,1.6,0.5,2.5,0.5
				c2.1,0,3.1-0.4,4.2-2.5l0.4-0.9l-14.4-33.3c-0.3-0.8-0.6-2-0.6-2.7c0-3.4,2.6-5.7,5.9-5.7c3,0,4.7,1.6,5.7,4.5l9.1,24.5l8.8-24.4
				c0.9-2.5,2.7-4.6,5.7-4.6c3.1,0,5.7,2.4,5.7,5.5c0,0.9-0.3,2.3-0.5,2.8l-14.7,35.2c-3.5,8.6-7.1,11.8-14.2,11.8
				C186.3,402.9,184.4,402.5,182.5,401.8z"/>
		</g>
		<path class="st1" d="M220.9,338.4c0-3.3,2.7-6,6-6s6,2.7,6,6v15.8c2.9-3.9,6.9-6.8,13.1-6.8c9.8,0,19.2,7.7,19.2,21.7v0.2
			c0,14.1-9.2,21.7-19.2,21.7c-6.4,0-10.3-2.9-13.1-6.3v0.1c0,3.2-2.7,5.9-6,5.9s-6-2.7-6-6L220.9,338.4L220.9,338.4z M253.2,369.1
			v-0.2c0-7-4.7-11.6-10.3-11.6s-10.2,4.6-10.2,11.6v0.2c0,7,4.6,11.6,10.2,11.6S253.2,376.2,253.2,369.1z"/>
		<path class="st1" d="M267.2,369.3v-0.2c0-12.1,9.7-21.9,22.8-21.9c13,0,22.7,9.7,22.7,21.7v0.2c0,12.1-9.7,21.9-22.8,21.9
			C276.9,391,267.2,381.4,267.2,369.3z M300.9,369.3v-0.2c0-6.2-4.5-11.6-11.1-11.6c-6.8,0-10.9,5.3-10.9,11.5v0.2
			c0,6.2,4.5,11.6,11.1,11.6C296.8,380.7,300.9,375.5,300.9,369.3z"/>
		<path class="st1" d="M313.9,378v-0.2c0-9.2,7-13.4,17-13.4c4.2,0,7.3,0.7,10.3,1.7v-0.7c0-4.9-3.1-7.7-9-7.7c-3.3,0-6,0.5-8.2,1.2
			c-0.7,0.2-1.2,0.3-1.7,0.3c-2.7,0-4.9-2.1-4.9-4.9c0-2.1,1.3-3.9,3.2-4.6c3.8-1.4,7.9-2.2,13.4-2.2c6.5,0,11.2,1.7,14.2,4.7
			c3.1,3.1,4.6,7.8,4.6,13.4v19.2c0,3.2-2.6,5.7-5.8,5.7c-3.5,0-5.7-2.4-5.7-4.9v-0.1c-2.9,3.2-6.9,5.3-12.7,5.3
			C320.4,390.9,313.9,386.3,313.9,378z M341.3,375.2v-2.1c-2-0.9-4.7-1.6-7.6-1.6c-5.1,0-8.2,2-8.2,5.8v0.2c0,3.2,2.7,5.1,6.5,5.1
			C337.5,382.6,341.3,379.6,341.3,375.2z"/>
		<g>
			<path class="st1" d="M358.7,353.6c0-3.3,2.7-6,6-6s6,2.7,6,6v1.9c1.7-4.1,4.6-7.9,8.1-7.9c3.7,0,5.8,2.4,5.8,5.8
				c0,3.1-2,5-4.5,5.6c-6,1.4-9.4,6-9.4,14.5v11.1c0,3.3-2.7,6-6,6s-6-2.7-6-6V353.6z"/>
		</g>
		<path class="st1" d="M428,384.6c0,3.3-2.7,6-6,6s-6-2.7-6-6v-0.5c-2.9,3.9-6.9,6.8-13.1,6.8c-9.8,0-19.2-7.7-19.2-21.7V369
			c0-14.1,9.2-21.7,19.2-21.7c6.4,0,10.3,2.9,13.1,6.3v-15.2c0-3.3,2.7-6,6-6s6,2.7,6,6V384.6z M395.8,369v0.2
			c0,7,4.7,11.6,10.3,11.6c5.6,0,10.2-4.6,10.2-11.6V369c0-7-4.6-11.6-10.2-11.6C400.5,357.4,395.8,362,395.8,369z"/>
		<path class="st1" d="M436.8,372.3c-1.2,0-2.2-1-2.2-2.2v-7c0-2.6,0.7-4.5,2-5.9c1.1-1.1,2.7-1.7,4.6-1.7h0.1c3.2,0,5.1,1.6,6.1,4
			l3.7-3.1c0.5-0.4,1-0.7,1.7-0.7c1.2,0,2,1,2,2.1c0,1-0.5,1.7-1.1,2.2l-5.5,4.3v3.5h4.4c1.2,0,2.2,1,2.2,2.2s-1,2.2-2.2,2.2
			L436.8,372.3L436.8,372.3z M444.4,363.4c0-2.2-1.1-3.4-2.8-3.4h-0.1c-1.9,0-2.9,1.3-2.9,3.5v4.4h5.8V363.4z"/>
		<path class="st1" d="M444.7,353.9L444.7,353.9c-5.8,0-10.5-4.5-10.5-10.7s4.6-10.7,10.3-10.7h0.1c5.7,0,10.4,4.5,10.4,10.7
			S450.4,353.9,444.7,353.9z M444.7,337.2L444.7,337.2c-3.5,0-6.4,2.5-6.4,6.1s2.8,6,6.3,6h0.1c3.4,0,6.3-2.5,6.3-6.1
			C451,339.7,448.2,337.2,444.7,337.2z"/>
		<path class="st1" d="M49.6,391.1c10.7,0,21.6-6,21.6-17.4c0-12.2-12.1-15.7-17.9-17.4c-0.5-0.2-1-0.3-1.5-0.4l-0.7-0.2
			c-8-2.5-9.6-4.3-9.4-6.4c0.1-1.2,0.4-2.4,2.6-3.5c1.9-0.9,4.7-1.4,7.4-1.2c4.6,0.3,8.8,3.2,10.6,4.5c2.7,1.9,6.4,1.2,8.3-1.5
			s1.2-6.4-1.5-8.3c-2.6-1.8-8.8-6.1-16.7-6.6c-4.7-0.3-9.6,0.6-13.3,2.4c-5.6,2.7-8.9,7.5-9.3,13.5c-0.3,4,0.8,9.6,7.3,14
			c3.6,2.4,7.7,3.7,10.5,4.5l0.7,0.2c0.5,0.2,1.1,0.3,1.7,0.5c7.8,2.3,9.3,3.9,9.3,5.9c0,1.2-0.3,2.5-2.4,3.7
			c-1.8,1.1-4.6,1.7-7.2,1.7c-2.5,0-7-0.7-9-1.8c-2-1.1-2.8-1.9-3.6-2.5c-2.7-1.9-6.4-1.2-8.3,1.5s-1.2,6.4,1.5,8.3
			c1.9,1.3,6.9,4.3,10.4,5.2C44.2,390.8,46.9,391.1,49.6,391.1z"/>
	</g>
</g>
</svg>
