<?xml version="1.0" encoding="UTF-8" standalone="no"?>
<!-- Generator: Adobe Illustrator 27.3.0, SVG Export Plug-In . SVG Version: 6.00 Build 0)  -->

<svg
   version="1.1"
   id="Layer_1"
   x="0px"
   y="0px"
   width="300"
   height="300"
   viewBox="0 0 300 300"
   xml:space="preserve"
   xmlns="http://www.w3.org/2000/svg"
   xmlns:svg="http://www.w3.org/2000/svg"><defs
   id="defs125" />
<style
   type="text/css"
   id="style68">
	.st0{fill:none;}
	.st1{fill:#FA9EB1;}
</style>
<g
   id="g80"
   transform="translate(-90.000001,12)">
	<rect
   x="90"
   y="-12"
   class="st0"
   width="300"
   height="300"
   id="rect70" />
	<g
   id="g78">
		<path
   class="st1"
   d="m 343.6,191.8 c 0,-55.4 -54.9,-71.4 -81.3,-79.1 -2.4,-0.7 -4.6,-1.3 -6.6,-2 l -3.4,-1 C 215.9,98.5 209,90.3 209.6,80.8 c 0.3,-5.4 2,-11 11.8,-15.8 8.7,-4.2 21.2,-6.2 33.4,-5.4 20.8,1.3 40,14.7 48.2,20.4 12.3,8.6 29.2,5.5 37.8,-6.8 C 349.4,60.9 346.3,44 334,35.4 322.1,27.1 294.2,7.7 258.3,5.5 236.8,4.1 214.8,8 197.8,16.2 c -25.6,12.4 -40.6,34.1 -42.4,61.2 -1.2,18.1 3.7,43.8 33.3,63.7 16.2,10.9 35.2,16.7 47.8,20.6 l 3.2,1 c 2.3,0.7 4.8,1.5 7.5,2.2 35.3,10.3 42.2,17.7 42.2,27 0,5.5 -1.3,11.4 -11,17 -8.3,4.8 -20.9,7.8 -32.8,7.8 -15.3,0 -38.5,-2.5 -56.3,-18.3 -11.6,-10.3 -29.7,-27.7 -29.7,-27.7 l -6.6,-6.2 c -2.3,-2.1 -5.6,-2 -7.7,0.3 -2.1,2.3 -2,5.6 0.3,7.7 l 6.7,6.2 c 2.3,2.1 2.4,5.4 0.3,7.7 -2.1,2.3 -5.4,2.4 -7.7,0.3 l -18,-16.7 c -2.3,-2.1 -5.6,-2 -7.7,0.3 -2.1,2.3 -2,5.6 0.3,7.7 l 13.4,12.5 c 2.3,2.1 2.4,5.4 0.3,7.7 -2.1,2.3 -5.4,2.4 -7.7,0.3 l -4.8,-4.5 c -2.3,-2.1 -5.6,-2 -7.7,0.3 -2.1,2.3 -2,5.6 0.3,7.7 l 6.6,6.3 c 0,0 10.5,10 33.2,30.8 25.2,23.2 64.4,32.2 92.4,32.2 48.8,-0.4 98.1,-27.6 98.1,-79.5 z m -189.4,25.7 c -2,2.2 -5.4,2.4 -7.4,0.5 l -8.4,-7.8 c -2,-1.9 -2.1,-5.2 0,-7.4 2,-2.2 5.4,-2.4 7.4,-0.5 l 8.4,7.8 c 2,1.8 2,5.2 0,7.4 z"
   id="path72" />
		<path
   class="st1"
   d="m 106.9,158.8 c -2,2.2 -1.9,5.6 0.3,7.7 2.2,2 5.6,1.9 7.7,-0.3 2,-2.2 1.9,-5.6 -0.3,-7.7 -2.2,-2.1 -5.7,-1.9 -7.7,0.3 z"
   id="path74" />
		<path
   class="st1"
   d="m 101.5,183.3 v 0 c -2.1,2.2 -1.9,5.7 0.3,7.7 2.2,2 5.6,1.9 7.7,-0.3 2,-2.2 1.9,-5.6 -0.3,-7.7 -2.2,-2 -5.6,-1.9 -7.7,0.3 z"
   id="path76" />
	</g>
</g>

</svg>
